<svg width="150" height="251" viewBox="0 0 150 251" fill="none" xmlns="http://www.w3.org/2000/svg">
<g clip-path="url(#clip0_905_75)">
<path d="M14.27 97.3002C14.39 99.8002 14.5 102.23 14.61 104.64C14.66 105.84 14.7 107.04 14.75 108.23L14.78 109.12L14.85 110.13C14.86 110.47 14.93 110.81 14.99 111.14C15.05 111.48 15.11 111.81 15.21 112.14C15.87 114.79 17.46 117.15 19.58 118.89C21.71 120.63 24.47 121.66 27.37 121.77C27.37 121.77 26.98 121.52 26.07 121.19C25.17 120.8 23.75 120.3 21.88 119.18C20.31 117.99 18.8 116.41 17.76 114.49C19.63 117.87 23.23 120.17 27.36 120.17H32.57L35 120.64C35.78 120.51 34.42 120.37 34.5 120.17H35.91C35.94 120.41 36.86 120.43 37.34 120.63C37.1 120.63 36.81 120.66 36.59 120.66C37.26 120.78 37.97 120.81 39.07 120.82C38.36 120.71 39.17 120.63 39.25 120.55C39.45 120.82 40.58 120.9 42.03 120.82C43.13 120.47 44.91 121.05 46.69 120.95C45.97 120.64 45.05 120.39 43.97 120.27C44.91 120.14 45.15 120.23 45.87 120.17H46.44C46.93 120.4 47.36 120.71 48.71 120.84L48.79 120.61C50.11 120.73 50.11 121.06 51.79 121C54.67 120.89 57.63 120.89 59.82 120.86L59.9 120.63C61.12 121.12 63.97 120.81 65.62 121.03C68.42 120.81 71.7 121.25 73.13 120.86C78.07 121.03 82.39 121.21 87.5 121.12L86.64 120.79C87.56 121.03 87.24 120.6 88.14 120.65C87.11 120.91 89.38 120.99 90.02 121.2C92.3 120.94 95.22 121.22 97.24 121.46L97.32 121.23C99.36 121.66 101.8 121.28 104.34 121.21C104.64 121.12 105.1 120.9 105.85 120.93C107.23 121.3 107.95 121.27 109.97 121.5C111.45 121.5 113.84 121.41 115.34 121.27C116.73 121.4 118.13 121.48 119.53 121.52L121.64 121.57H122.7C123.04 121.59 123.41 121.59 123.83 121.57C127.04 121.46 130.18 120.02 132.51 117.68L132.63 117.15C133.75 116.05 134.68 114.59 135.23 112.95C135.35 112.54 135.47 112.12 135.57 111.7C135.64 111.27 135.72 110.84 135.77 110.41C135.79 109.98 135.82 109.53 135.83 109.12V107.98C135.8 104.96 135.75 102.04 135.89 99.6502L135.43 100.11C135.29 98.6102 135.55 96.7002 135.87 97.0702C135.73 95.5702 136.09 93.3202 135.72 92.3702C135.64 90.8302 135.93 90.4902 135.99 89.2102C135.83 86.4602 135.85 85.2402 135.92 82.9402C135.82 83.1202 135.67 83.0502 135.65 82.4402C135.78 81.3602 135.53 78.4702 136.07 79.5402C135.75 76.4402 136.33 72.3202 135.9 69.3102C136.05 69.5702 136.08 68.8102 136.18 68.4902C136.18 65.7802 135.88 62.9202 136.14 60.7502C136.07 60.3202 135.89 61.4402 135.87 60.3302C135.93 59.6802 136.07 60.3102 136.15 59.5102C136.43 55.1102 135.86 50.6102 135.93 46.6102C136.22 39.5002 136.07 32.0802 136.12 25.2702L136.01 25.3502C136.43 23.0702 135.58 20.0002 136.21 18.1802C136.11 17.6402 136.16 16.1202 135.95 16.5202C136.09 15.5902 136.05 14.3902 135.95 12.9102C135.86 11.5502 135.54 10.1702 135.17 8.87021C134.53 7.50021 133.82 6.27021 132.92 5.14021C132 4.01021 130.85 3.00021 129.39 2.31021C129.65 2.52021 130.13 2.86021 130.15 2.99021C129.58 2.75021 129.02 2.28021 128.45 1.95021C127.89 1.59021 127.31 1.39021 126.92 1.52021C126.33 1.36021 126.45 1.19021 126.77 1.23021C125.96 1.03021 125.14 0.880215 124.31 0.820215C123.38 0.770215 122.61 0.780215 121.83 0.780215C120.25 0.780215 118.66 0.750215 117.06 0.710215C113.86 0.630215 110.63 0.540215 107.44 0.460215C102.87 0.780215 107.16 1.35021 103.56 0.950215C103.26 1.05021 103.35 0.750215 103.29 0.860215C101.89 0.710215 101.12 1.45021 100.15 1.17021C100.55 0.850215 99.51 0.990215 99.48 0.790215C96.69 1.00021 96.13 1.29021 93.92 1.05021L94.09 1.22021C91.5 0.740215 88.51 1.00021 86.33 0.440215C72.07 0.340215 58.4 0.0302148 44.5 -0.0297852C41.06 -0.0297852 37.65 -0.00978516 34.23 0.000214843H29.11C28.23 0.000214843 27.49 -0.0397852 26.38 0.0302148C25.35 0.100215 24.32 0.310215 23.33 0.610215C21.35 1.25021 19.53 2.35021 18.04 3.80021C16.56 5.26021 15.43 7.08021 14.77 9.06021C14.59 9.55022 14.49 10.0702 14.36 10.5702C14.28 11.0802 14.19 11.6002 14.14 12.1202C14.12 12.6102 14.08 13.2302 14.09 13.6202L14.11 14.9202C14.14 16.6502 14.17 18.3902 14.2 20.1302C14.65 23.4002 14.64 23.6502 14.45 27.2402C14.52 27.1002 14.54 26.8702 14.61 27.1102C14.24 27.2902 14.58 29.6402 14.22 29.9802C14.29 35.1402 14.19 39.8902 14.19 45.2002C14.23 44.3602 14.53 43.9402 14.51 44.9402L14.27 45.9802L14.37 46.1502C14.31 46.8302 14.13 47.5702 14.02 46.8702C13.7 60.2102 14.44 73.3302 14.35 86.3902C14.5 89.4902 14.36 93.9102 14.29 97.2702L14.27 97.3002Z" fill="#FFD9AA"/>
<mask id="mask0_905_75" style="mask-type:luminance" maskUnits="userSpaceOnUse" x="13" y="-1" width="124" height="123">
<path d="M14.27 97.3002C14.39 99.8002 14.5 102.23 14.61 104.64C14.66 105.84 14.7 107.04 14.75 108.23L14.78 109.12L14.85 110.13C14.86 110.47 14.93 110.81 14.99 111.14C15.05 111.48 15.11 111.81 15.21 112.14C15.87 114.79 17.46 117.15 19.58 118.89C21.71 120.63 24.47 121.66 27.37 121.77C27.37 121.77 26.98 121.52 26.07 121.19C25.17 120.8 23.75 120.3 21.88 119.18C20.31 117.99 18.8 116.41 17.76 114.49C19.63 117.87 23.23 120.17 27.36 120.17H32.57L35 120.64C35.78 120.51 34.42 120.37 34.5 120.17H35.91C35.94 120.41 36.86 120.43 37.34 120.63C37.1 120.63 36.81 120.66 36.59 120.66C37.26 120.78 37.97 120.81 39.07 120.82C38.36 120.71 39.17 120.63 39.25 120.55C39.45 120.82 40.58 120.9 42.03 120.82C43.13 120.47 44.91 121.05 46.69 120.95C45.97 120.64 45.05 120.39 43.97 120.27C44.91 120.14 45.15 120.23 45.87 120.17H46.44C46.93 120.4 47.36 120.71 48.71 120.84L48.79 120.61C50.11 120.73 50.11 121.06 51.79 121C54.67 120.89 57.63 120.89 59.82 120.86L59.9 120.63C61.12 121.12 63.97 120.81 65.62 121.03C68.42 120.81 71.7 121.25 73.13 120.86C78.07 121.03 82.39 121.21 87.5 121.12L86.64 120.79C87.56 121.03 87.24 120.6 88.14 120.65C87.11 120.91 89.38 120.99 90.02 121.2C92.3 120.94 95.22 121.22 97.24 121.46L97.32 121.23C99.36 121.66 101.8 121.28 104.34 121.21C104.64 121.12 105.1 120.9 105.85 120.93C107.23 121.3 107.95 121.27 109.97 121.5C111.45 121.5 113.84 121.41 115.34 121.27C116.73 121.4 118.13 121.48 119.53 121.52L121.64 121.57H122.7C123.04 121.59 123.41 121.59 123.83 121.57C127.04 121.46 130.18 120.02 132.51 117.68L132.63 117.15C133.75 116.05 134.68 114.59 135.23 112.95C135.35 112.54 135.47 112.12 135.57 111.7C135.64 111.27 135.72 110.84 135.77 110.41C135.79 109.98 135.82 109.53 135.83 109.12V107.98C135.8 104.96 135.75 102.04 135.89 99.6502L135.43 100.11C135.29 98.6102 135.55 96.7002 135.87 97.0702C135.73 95.5702 136.09 93.3202 135.72 92.3702C135.64 90.8302 135.93 90.4902 135.99 89.2102C135.83 86.4602 135.85 85.2402 135.92 82.9402C135.82 83.1202 135.67 83.0502 135.65 82.4402C135.78 81.3602 135.53 78.4702 136.07 79.5402C135.75 76.4402 136.33 72.3202 135.9 69.3102C136.05 69.5702 136.08 68.8102 136.18 68.4902C136.18 65.7802 135.88 62.9202 136.14 60.7502C136.07 60.3202 135.89 61.4402 135.87 60.3302C135.93 59.6802 136.07 60.3102 136.15 59.5102C136.43 55.1102 135.86 50.6102 135.93 46.6102C136.22 39.5002 136.07 32.0802 136.12 25.2702L136.01 25.3502C136.43 23.0702 135.58 20.0002 136.21 18.1802C136.11 17.6402 136.16 16.1202 135.95 16.5202C136.09 15.5902 136.05 14.3902 135.95 12.9102C135.86 11.5502 135.54 10.1702 135.17 8.87021C134.53 7.50021 133.82 6.27021 132.92 5.14021C132 4.01021 130.85 3.00021 129.39 2.31021C129.65 2.52021 130.13 2.86021 130.15 2.99021C129.58 2.75021 129.02 2.28021 128.45 1.95021C127.89 1.59021 127.31 1.39021 126.92 1.52021C126.33 1.36021 126.45 1.19021 126.77 1.23021C125.96 1.03021 125.14 0.880215 124.31 0.820215C123.38 0.770215 122.61 0.780215 121.83 0.780215C120.25 0.780215 118.66 0.750215 117.06 0.710215C113.86 0.630215 110.63 0.540215 107.44 0.460215C102.87 0.780215 107.16 1.35021 103.56 0.950215C103.26 1.05021 103.35 0.750215 103.29 0.860215C101.89 0.710215 101.12 1.45021 100.15 1.17021C100.55 0.850215 99.51 0.990215 99.48 0.790215C96.69 1.00021 96.13 1.29021 93.92 1.05021L94.09 1.22021C91.5 0.740215 88.51 1.00021 86.33 0.440215C72.07 0.340215 58.4 0.0302148 44.5 -0.0297852C41.06 -0.0297852 37.65 -0.00978516 34.23 0.000214843H29.11C28.23 0.000214843 27.49 -0.0397852 26.38 0.0302148C25.35 0.100215 24.32 0.310215 23.33 0.610215C21.35 1.25021 19.53 2.35021 18.04 3.80021C16.56 5.26021 15.43 7.08021 14.77 9.06021C14.59 9.55022 14.49 10.0702 14.36 10.5702C14.28 11.0802 14.19 11.6002 14.14 12.1202C14.12 12.6102 14.08 13.2302 14.09 13.6202L14.11 14.9202C14.14 16.6502 14.17 18.3902 14.2 20.1302C14.65 23.4002 14.64 23.6502 14.45 27.2402C14.52 27.1002 14.54 26.8702 14.61 27.1102C14.24 27.2902 14.58 29.6402 14.22 29.9802C14.29 35.1402 14.19 39.8902 14.19 45.2002C14.23 44.3602 14.53 43.9402 14.51 44.9402L14.27 45.9802L14.37 46.1502C14.31 46.8302 14.13 47.5702 14.02 46.8702C13.7 60.2102 14.44 73.3302 14.35 86.3902C14.5 89.4902 14.36 93.9102 14.29 97.2702L14.27 97.3002Z" fill="white"/>
</mask>
<g mask="url(#mask0_905_75)">
<path d="M100.45 114.47C102.12 100.28 106.24 85.4204 116.93 75.9504C119.15 73.9804 121.7 72.2604 124.59 71.6304C130.61 70.3304 136.79 74.2004 140.12 79.3704C143.45 84.5504 148.5 130.13 149.52 136.2L99.63 142.29C99.09 133.02 99.36 123.69 100.45 114.47Z" fill="#ECC18A"/>
<path d="M124.72 155.741C124.57 155.511 124.43 155.261 124.34 155.001C124.24 154.741 124.21 154.481 124.09 154.231C124.02 154.091 124.04 153.931 123.98 153.791C123.33 152.351 123.1 150.881 122.87 149.421C122.51 147.461 122.34 145.491 122.3 143.521C122.27 141.941 122.46 140.361 122.57 138.781C122.68 137.021 122.89 135.261 122.81 133.531C122.74 132.301 122.2 131.131 122.04 129.931C121.87 128.741 121.89 127.531 121.73 126.341C121.64 125.711 121.38 125.121 121.29 124.501C121.08 123.081 120.9 121.651 120.53 120.251C120.25 119.171 119.88 118.101 119.42 117.061C118.99 116.081 118.5 115.121 118.01 114.151C117.48 113.101 117.02 112.011 116.51 110.921C115.68 109.201 114.77 107.281 114.49 105.331C114.14 102.681 114.6 100.171 114.94 97.6306C115.2 95.8906 115.55 94.1506 115.9 92.4306C116.16 91.1706 116.43 89.9106 116.69 88.6506C116.72 88.5006 116.77 88.3606 116.81 88.2106C116.86 88.0106 116.91 87.8406 117 87.8306C117.08 87.8306 117.17 87.9606 117.26 88.2106C117.39 88.6006 117.55 89.0106 117.59 89.3906C117.71 90.3906 117.68 91.3806 117.86 92.3806C117.99 93.1006 117.9 93.8006 117.77 94.5006C117.44 96.2906 116.77 98.0806 116.18 99.9006C116.03 100.371 116.18 100.851 116.18 101.331C116.18 102.021 116.13 102.711 116.15 103.401C116.18 104.741 116.29 106.071 116.46 107.391C116.57 108.261 116.67 109.151 116.94 110.001C117.06 110.391 117.28 110.751 117.44 111.131C117.55 111.411 117.64 111.701 117.74 111.991C117.8 112.151 117.79 112.351 117.9 112.481C118.56 113.291 118.69 114.331 119.2 115.211C119.89 116.441 120.47 117.741 120.96 119.061C121.48 120.411 121.87 121.811 122.19 123.221C122.37 124.041 122.72 124.831 122.78 125.681C122.88 127.381 123.45 128.991 123.69 130.671C123.82 131.591 124.33 132.481 124.63 133.401C124.76 133.801 124.74 134.221 124.77 134.631C124.86 135.581 124.96 136.541 124.97 137.491C124.97 137.971 124.95 138.451 124.73 138.931C124.04 140.441 124.25 141.901 124.37 143.381C124.54 145.481 124.52 147.601 124.68 149.701C124.74 150.371 125.06 151.021 125.11 151.691C125.18 152.511 125.14 153.341 125.14 154.161C125.14 154.381 125.16 154.591 125.14 154.811C125.07 155.481 124.96 155.761 124.73 155.731L124.72 155.741Z" fill="#BF925E"/>
<path d="M131.31 87.4705C131.48 87.6105 131.65 87.7705 131.77 87.9405C131.9 88.1105 131.96 88.3005 132.11 88.4705C132.2 88.5605 132.19 88.6904 132.27 88.7804C132.64 89.2804 132.96 89.7904 133.18 90.3404C133.39 90.8804 133.53 91.4404 133.7 91.9904C134.12 93.4804 134.32 95.0205 134.27 96.5505C134.24 97.7705 133.94 98.9804 133.7 100.17C133.42 101.5 133.01 102.79 132.81 104.1C132.68 105.02 132.97 106 132.85 106.94C132.72 107.86 132.37 108.75 132.13 109.64C132.01 110.12 132.04 110.62 131.88 111.09C131.53 112.15 131.07 113.18 130.66 114.21C130.34 115.01 130.05 115.82 129.78 116.63C129.53 117.39 129.32 118.17 129.12 118.94C128.9 119.78 128.62 120.6 128.49 121.46C128.26 122.84 128.4 124.32 128.17 125.69C127.84 127.54 126.96 129.22 126.23 130.94C125.7 132.12 125.17 133.31 124.63 134.5C124.25 135.38 123.88 136.26 123.57 137.16C123.53 137.27 123.48 137.37 123.43 137.47C123.37 137.61 123.31 137.73 123.23 137.73C123.15 137.73 123.06 137.61 122.99 137.41C122.88 137.1 122.74 136.77 122.72 136.48C122.65 135.7 122.77 134.97 122.69 134.17C122.64 133.61 122.8 133.09 123.02 132.59C123.58 131.31 124.5 130.15 125.4 128.98C125.63 128.68 125.57 128.29 125.67 127.95L126.13 126.48C126.4 125.52 126.64 124.55 126.97 123.6C127.18 122.98 127.47 122.37 127.67 121.74C127.76 121.45 127.76 121.13 127.84 120.84C127.9 120.62 127.99 120.42 128.07 120.21C128.12 120.09 128.24 119.98 128.22 119.86C128.17 119.07 128.7 118.44 128.85 117.71C129.06 116.68 129.4 115.69 129.69 114.68L130.57 111.57C130.73 110.96 130.7 110.31 130.93 109.72C131.4 108.53 131.29 107.23 131.41 105.98C131.49 105.29 131.14 104.55 131.01 103.85C130.95 103.54 131.04 103.25 131.05 102.95C131.09 102.25 131.11 101.56 131.19 100.87C131.23 100.52 131.31 100.18 131.57 99.8504C132.39 98.8104 132.27 97.6904 132.21 96.6004C132.14 95.0404 132.13 93.4704 131.9 91.9204C131.8 91.4304 131.47 90.9805 131.36 90.5005C131.21 89.9105 131.21 89.2905 131.11 88.6905C131.09 88.5305 131.05 88.3805 131.03 88.2205C131.03 87.7205 131.1 87.4804 131.32 87.4604L131.31 87.4705Z" fill="#BF925E"/>
<path d="M125.78 93.7705C125.9 93.8905 126.01 94.0205 126.08 94.1505C126.15 94.2805 126.15 94.3905 126.24 94.5205C126.29 94.5905 126.24 94.6505 126.29 94.7305C126.82 95.4505 126.91 96.0905 127 96.7405C127.2 97.6105 127.22 98.4605 127.13 99.3105C127.05 99.9905 126.77 100.671 126.59 101.361C126.38 102.131 126.09 102.901 126.07 103.681C126.05 104.231 126.51 104.761 126.55 105.311C126.6 105.851 126.43 106.401 126.4 106.951C126.38 107.241 126.54 107.521 126.5 107.811C126.4 108.471 126.25 109.141 126.14 109.811C126.07 110.331 126 110.851 126 111.361C126 111.841 126.03 112.321 126.07 112.801C126.13 113.321 126.12 113.841 126.28 114.351C126.51 115.171 127.13 115.931 127.4 116.701C127.74 117.751 127.54 118.841 127.55 119.951C127.55 120.711 127.54 121.481 127.6 122.271C127.66 122.841 127.72 123.431 127.9 123.971C127.92 124.041 127.92 124.111 127.93 124.181C127.95 124.271 127.95 124.361 127.89 124.411C127.82 124.461 127.7 124.461 127.55 124.411C127.32 124.341 127.05 124.271 126.91 124.141C126.53 123.801 126.2 123.431 125.82 123.051C125.5 122.801 125.42 122.451 125.39 122.101C125.32 121.181 125.68 120.201 126.05 119.281C126.15 119.041 125.95 118.861 125.91 118.651L125.79 117.721C125.69 117.121 125.58 116.531 125.56 115.921C125.55 115.521 125.62 115.111 125.6 114.721C125.59 114.541 125.49 114.361 125.47 114.181C125.45 114.051 125.47 113.911 125.49 113.771C125.49 113.691 125.58 113.601 125.52 113.541C125.22 113.111 125.54 112.641 125.44 112.191C125.33 111.571 125.36 110.931 125.35 110.301C125.33 109.651 125.35 109.001 125.35 108.351C125.35 107.971 125.17 107.601 125.25 107.221C125.44 106.451 125.06 105.721 124.97 104.961C124.93 104.551 124.47 104.141 124.24 103.731C124.14 103.551 124.18 103.361 124.17 103.181C124.14 102.751 124.08 102.321 124.12 101.891C124.14 101.671 124.19 101.461 124.44 101.251C125.21 100.601 125.08 99.9405 125.06 99.2805C125.03 98.3305 125.21 97.4005 125.23 96.4505C125.23 96.1505 124.97 95.8205 124.99 95.5205C124.99 95.1505 125.12 94.7905 125.22 94.4305C125.24 94.3305 125.25 94.2405 125.28 94.1405C125.42 93.8605 125.56 93.7505 125.78 93.8005V93.7705Z" fill="#BF925E"/>
<path d="M111.39 109.2C111.53 109.3 111.67 109.41 111.75 109.52C111.84 109.63 111.86 109.75 111.97 109.86C112.03 109.92 112 109.99 112.06 110.06C112.71 110.69 112.9 111.34 113.09 111.98C113.43 112.84 113.57 113.69 113.6 114.56C113.62 115.25 113.44 115.96 113.37 116.67C113.28 117.46 113.12 118.27 113.24 119.03C113.32 119.57 113.88 120 114.03 120.5C114.19 121 114.15 121.56 114.26 122.09C114.31 122.37 114.54 122.58 114.58 122.87C114.68 123.5 114.73 124.17 114.87 124.82C114.97 125.32 115.14 125.8 115.33 126.27C115.54 126.7 115.77 127.11 116.04 127.5C116.34 127.92 116.6 128.36 117 128.7C117.63 129.26 118.57 129.54 119.24 130.05C120.12 130.76 120.61 131.85 121.17 132.9C121.55 133.63 121.88 134.41 122.18 135.17C122.39 135.72 122.61 136.29 122.83 136.85C122.85 136.92 122.86 136.99 122.88 137.06C122.9 137.15 122.92 137.24 122.86 137.29C122.79 137.34 122.67 137.34 122.52 137.31C122.28 137.26 122.02 137.22 121.88 137.13C121.48 136.88 121.12 136.61 120.68 136.4C120.35 136.27 120.17 136.02 120.05 135.72C119.72 134.97 119.64 133.97 119.5 132.99C119.46 132.74 119.2 132.68 119.06 132.52L118.46 131.8C118.05 131.35 117.62 130.91 117.26 130.42C117.02 130.09 116.85 129.71 116.62 129.39C116.51 129.24 116.33 129.14 116.21 129C116.12 128.89 116.07 128.76 116.01 128.64C115.98 128.57 116 128.45 115.91 128.42C115.43 128.2 115.46 127.62 115.18 127.26C114.78 126.76 114.55 126.14 114.29 125.57C114.04 124.96 113.83 124.34 113.63 123.72C113.51 123.36 113.24 123.05 113.21 122.66C113.19 121.87 112.65 121.24 112.4 120.51C112.27 120.11 111.75 119.8 111.44 119.42C111.31 119.25 111.31 119.06 111.27 118.88C111.17 118.45 111.03 118.03 111 117.59C110.99 117.37 111 117.14 111.21 116.9C111.87 116.13 111.65 115.5 111.53 114.83C111.36 113.89 111.41 112.93 111.28 111.98C111.23 111.68 110.93 111.4 110.89 111.09C110.83 110.72 110.9 110.34 110.92 109.97C110.92 109.87 110.92 109.77 110.92 109.67C111.01 109.36 111.13 109.23 111.35 109.24L111.39 109.2Z" fill="#BF925E"/>
<path d="M139.51 94.1302C139.64 94.2102 139.75 94.2902 139.82 94.3702C139.89 94.4502 139.89 94.5102 139.99 94.5902C140.04 94.6402 140 94.6702 140.05 94.7102C140.59 95.1802 140.68 95.5902 140.73 95.9902C140.89 96.5502 140.84 97.0702 140.66 97.5502C140.51 97.9302 140.14 98.2502 139.85 98.5902C139.52 98.9602 139.11 99.2902 138.92 99.6902C138.79 99.9702 139.09 100.42 139.01 100.72C138.92 101.02 138.62 101.24 138.45 101.51C138.36 101.65 138.42 101.86 138.3 101.98C138.02 102.27 137.7 102.53 137.4 102.79C137.18 103 136.97 103.22 136.8 103.45C136.64 103.67 136.52 103.9 136.4 104.15C136.28 104.42 136.08 104.63 136.06 104.95C135.98 105.44 136.17 106.11 136.06 106.61C135.88 107.26 135.2 107.59 134.62 107.95C134.22 108.2 133.75 108.38 133.32 108.59C133.01 108.74 132.66 108.86 132.4 109.04C132.37 109.06 132.32 109.07 132.28 109.08C132.23 109.1 132.17 109.11 132.11 109.06C132.04 109.01 131.99 108.91 131.94 108.8C131.87 108.62 131.77 108.41 131.78 108.3C131.78 107.99 131.82 107.72 131.79 107.4C131.74 107.14 131.86 107.04 132.04 106.97C132.45 106.76 133.18 106.77 133.88 106.73C134.06 106.72 134 106.53 134.06 106.44C134.15 106.3 134.28 106.18 134.37 106.04C134.55 105.77 134.69 105.47 134.89 105.21C135.03 105.04 135.24 104.92 135.35 104.74C135.4 104.66 135.38 104.52 135.42 104.43C135.45 104.36 135.52 104.32 135.57 104.26C135.6 104.23 135.7 104.23 135.68 104.18C135.57 103.84 135.98 103.79 136.05 103.54C136.15 103.21 136.37 102.94 136.55 102.64C136.74 102.34 136.93 102.03 137.12 101.73C137.23 101.55 137.16 101.3 137.34 101.15C137.71 100.85 137.55 100.34 137.63 99.9302C137.68 99.7102 137.34 99.3402 137.21 99.0602C137.15 98.9402 137.23 98.8602 137.25 98.7702C137.29 98.5502 137.31 98.3202 137.42 98.1102C137.47 98.0102 137.55 97.9202 137.82 97.8802C138.65 97.7602 138.62 97.3702 138.66 97.0102C138.72 96.5002 138.97 96.0302 139.01 95.5102C139.01 95.3402 138.77 95.1302 138.78 94.9702C138.78 94.7702 138.9 94.5902 138.98 94.4002C139 94.3502 139 94.3002 139.03 94.2502C139.16 94.1102 139.29 94.0602 139.51 94.1102V94.1302Z" fill="#BF925E"/>
<path d="M110.79 92.6904C111.09 92.6904 111.17 92.7704 111.36 92.8104C111.43 92.8104 111.41 92.8504 111.47 92.8604C111.77 92.9104 112.1 92.9404 112.21 93.0504C112.36 93.1404 112.45 93.2504 112.59 93.3504C112.68 93.4104 112.77 93.4804 112.86 93.5404C112.92 93.6104 112.98 93.6904 113.03 93.7604C113.14 93.9104 113.2 94.0804 113.22 94.2604C113.27 94.5404 113.11 94.8904 113.04 95.2204C112.96 95.5804 112.78 95.9804 112.85 96.2904C112.9 96.5104 113.39 96.5704 113.49 96.7704C113.6 96.9704 113.48 97.2504 113.51 97.4704C113.51 97.5904 113.69 97.6504 113.68 97.7804C113.65 98.0804 113.56 98.4004 113.54 98.7004C113.5 98.9404 113.5 99.1704 113.54 99.3804C113.58 99.5804 113.65 99.7604 113.74 99.9404C113.85 100.13 113.88 100.34 114.08 100.49C114.38 100.74 114.96 100.86 115.28 101.08C115.66 101.41 115.5 101.98 115.44 102.5C115.41 102.86 115.29 103.26 115.25 103.63C115.23 103.89 115.15 104.19 115.17 104.44C115.17 104.47 115.16 104.51 115.15 104.54C115.15 104.58 115.13 104.63 115.06 104.67C114.98 104.71 114.89 104.73 114.78 104.73C114.63 104.73 114.43 104.74 114.31 104.72C114.03 104.65 113.77 104.56 113.53 104.47C113.32 104.42 113.29 104.29 113.3 104.14C113.3 103.96 113.4 103.72 113.56 103.46C113.7 103.21 113.89 102.94 114.07 102.68C114.16 102.54 113.98 102.53 113.94 102.45C113.89 102.33 113.87 102.2 113.81 102.09C113.7 101.87 113.57 101.66 113.51 101.41C113.47 101.25 113.51 101.06 113.45 100.9C113.43 100.83 113.31 100.79 113.28 100.73C113.25 100.68 113.26 100.62 113.26 100.56C113.26 100.53 113.33 100.46 113.27 100.45C112.95 100.38 113.2 100.08 113.08 99.9304C112.92 99.7204 112.89 99.4504 112.82 99.2004C112.75 98.9404 112.71 98.6704 112.65 98.4104C112.62 98.2604 112.41 98.1704 112.45 97.9904C112.56 97.6204 112.12 97.4504 111.95 97.1804C111.87 97.0304 111.39 97.0204 111.12 96.9304C111 96.8904 111.02 96.8004 110.99 96.7404C110.9 96.5804 110.8 96.4304 110.77 96.2604C110.76 96.1704 110.77 96.0704 110.98 95.9104C111.62 95.4004 111.39 95.2004 111.26 94.9604C111.08 94.6104 111.07 94.2104 110.9 93.8604C110.84 93.7504 110.53 93.7204 110.47 93.6104C110.39 93.4804 110.44 93.3004 110.43 93.1404C110.43 93.1004 110.41 93.0604 110.43 93.0204C110.48 92.8804 110.58 92.7904 110.8 92.7304L110.79 92.6904Z" fill="#BF925E"/>
<path d="M17.73 10.3803C23.07 9.51028 27.96 13.2103 32.21 16.5703C33.42 17.5203 34.7 18.4903 36.21 18.7603C38.48 19.1603 40.7 17.9003 42.99 17.7503C48.3 17.3903 52.21 22.7303 57.3 24.3003C61.11 25.4803 65.25 24.4403 69.21 24.9203C74.01 25.5003 78.43 28.5003 80.84 32.6803C53.89 32.6803 26.95 32.6803 0 32.6803C5.8 24.5703 11.53 11.3803 17.73 10.3803Z" fill="white"/>
<path d="M108.85 38.9504C110.82 37.4004 113.82 36.8504 115.79 38.3904C117.01 39.3404 118.28 41.0804 119.64 40.3504C120.32 39.9804 120.56 39.1404 120.88 38.4304C122.01 35.9404 124.99 34.5804 127.7 34.9704C130.41 35.3604 132.75 37.2804 134.06 39.6804C134.76 40.9604 135.51 42.6004 136.96 42.6604C137.72 42.6904 138.41 42.2404 139.12 41.9704C142.36 40.7304 145.87 43.2604 147.75 46.1804C148.1 46.7304 148.42 47.3004 148.73 47.8704C133.42 47.8704 118.1 47.8704 102.79 47.8704C103.42 46.9604 103.98 45.9804 104.5 45.0104C105.68 42.8004 106.87 40.5004 108.84 38.9504H108.85Z" fill="white"/>
<path d="M24.73 125.29C25.98 116.71 27.54 108.17 29.4 99.6901C32.55 85.3001 36.95 70.43 47.32 59.97C52.12 55.13 59.29 51.29 65.59 53.88C67.94 54.85 69.88 56.61 71.56 58.53C75.18 62.68 77.75 67.6301 80 72.6601C88.19 90.9801 92.49 111.03 92.54 131.1L26.82 131.56C24.53 130.83 24.4 127.67 24.75 125.29H24.73Z" fill="#ECC18A"/>
<path d="M58.71 135.48C58.58 134.97 58.66 134.45 58.66 133.94C58.65 133.79 58.71 133.66 58.71 133.51C58.62 132.02 58.88 130.64 59.13 129.26C59.42 127.4 59.84 125.58 60.34 123.79C60.75 122.36 61.3 120.97 61.76 119.55C62.26 117.97 62.84 116.39 63.13 114.76C63.34 113.61 63.13 112.41 63.24 111.25C63.35 110.1 63.62 108.97 63.74 107.82C63.81 107.21 63.72 106.6 63.79 105.99L64.3 101.79L64.64 98.4904C64.75 97.4604 64.85 96.4204 65 95.3904C65.17 94.2704 65.45 93.1704 65.66 92.0604C66 90.2904 66.16 88.4204 66.66 86.6904C67.36 84.3604 68.56 82.2804 69.51 80.1104C70.17 78.6204 70.81 77.1104 71.28 75.5404C71.59 74.3804 71.89 73.2004 71.95 71.9804C71.97 71.8604 71.99 71.7004 72.01 71.5504C72.03 71.3604 72.06 71.1804 72.13 71.1604C72.2 71.1404 72.29 71.2604 72.39 71.4904C72.54 71.8504 72.72 72.2404 72.79 72.6104C72.94 73.6004 72.9 74.5904 72.96 75.6104C73 76.3404 72.82 77.0504 72.58 77.7204C71.97 79.4604 70.91 80.9804 69.87 82.4704C69.6 82.8504 69.57 83.3304 69.4 83.7604L68.66 85.6004L67.32 89.2003C67.01 89.9903 66.67 90.7704 66.41 91.5704C66.29 91.9404 66.27 92.3504 66.17 92.7204C66.09 93.0004 66.01 93.2704 65.92 93.5504C65.87 93.7104 65.77 93.8603 65.77 94.0203C65.77 95.0003 65.35 95.8904 65.29 96.8604C65.2 98.2004 65.07 99.5404 65 100.89L64.8 105.03C64.75 105.83 64.87 106.65 64.73 107.45C64.45 109.05 64.58 110.67 64.45 112.28C64.35 113.16 64.62 114.09 64.65 115.01C64.67 115.41 64.57 115.79 64.51 116.18C64.37 117.08 64.25 117.99 64.03 118.88C63.92 119.32 63.79 119.77 63.49 120.16C62.55 121.4 62.36 122.79 62.05 124.17C61.61 126.13 60.99 128.05 60.49 130C60.34 130.62 60.4 131.3 60.24 131.92C60.05 132.68 59.77 133.42 59.51 134.16C59.44 134.36 59.39 134.56 59.31 134.75C59.05 135.33 58.87 135.56 58.7 135.47L58.71 135.48Z" fill="#BF925E"/>
<path d="M49.8899 138.64C49.6699 138.17 49.6499 137.67 49.5599 137.19C49.5199 137.05 49.5599 136.91 49.5299 136.78C49.1899 135.4 49.1699 134.08 49.0699 132.74C48.9699 130.96 48.8699 129.19 48.9199 127.41C48.9499 125.99 49.0799 124.56 49.1799 123.12C49.2299 121.52 49.3799 119.9 49.2699 118.31C49.1799 117.18 48.6999 116.1 48.5599 114.98C48.4099 113.87 48.4399 112.73 48.3599 111.6C48.3199 111.01 48.1199 110.43 48.0999 109.83C48.0299 108.47 48.0399 107.11 47.9999 105.75C47.9699 104.69 47.8999 103.64 47.8099 102.59C47.7299 101.6 47.6099 100.62 47.4799 99.6401C47.3399 98.5801 47.2799 97.5001 47.0699 96.4501C46.7299 94.7601 46.1699 93.0801 45.8699 91.3701C45.5599 89.0401 45.7699 86.6801 45.9999 84.3501C46.1099 82.7401 46.4599 81.1301 46.6799 79.5401C46.8899 78.3701 47.1599 77.2101 47.3499 76.0601C47.3799 75.9501 47.4099 75.8001 47.4499 75.6601C47.4899 75.4801 47.5299 75.3201 47.5999 75.3101C47.6699 75.3101 47.7499 75.4301 47.8199 75.6601C47.9299 76.0201 48.0699 76.3901 48.1099 76.7401C48.2199 77.6601 48.1799 78.5501 48.3399 79.4701C48.4699 80.1201 48.4199 80.7701 48.3199 81.4101C48.0399 83.0601 47.5799 84.7201 47.1299 86.4101C47.0099 86.8501 47.1499 87.2801 47.1799 87.7201L47.2499 89.6201C47.2999 90.8501 47.4399 92.0801 47.4999 93.3101C47.5499 94.1201 47.4999 94.9501 47.5799 95.7601C47.6099 96.1401 47.7299 96.5001 47.7699 96.8801C47.7999 97.1601 47.7999 97.4401 47.8099 97.7101C47.8099 97.8701 47.7599 98.0401 47.8099 98.1901C48.1299 99.0901 47.9499 100.03 48.1099 100.95C48.3199 102.23 48.4099 103.53 48.5499 104.82L48.9399 108.8C49.0099 109.57 49.2499 110.33 49.2599 111.11C49.2399 112.68 49.7299 114.18 49.9399 115.72C50.0499 116.57 50.5099 117.38 50.7799 118.21C50.8999 118.58 50.8999 118.96 50.9299 119.33C51.0199 120.2 51.1299 121.08 51.1699 121.96C51.1899 122.4 51.1899 122.84 50.9899 123.29C50.3899 124.68 50.5999 126.02 50.6599 127.38C50.7299 129.32 50.6299 131.25 50.5599 133.19C50.5499 133.8 50.7799 134.43 50.7399 135.05C50.6899 135.81 50.5399 136.56 50.4299 137.31C50.3999 137.51 50.3799 137.71 50.3399 137.9C50.1899 138.5 50.0599 138.74 49.8699 138.68L49.8899 138.64Z" fill="#BF925E"/>
<path d="M49.86 128.02C49.63 127.6 49.61 127.14 49.51 126.71C49.47 126.58 49.51 126.46 49.47 126.33C49.1 125.06 49.08 123.84 49.07 122.61C49.01 120.96 49.1 119.32 49.31 117.7C49.48 116.4 49.83 115.13 50.12 113.84C50.43 112.41 50.83 110.99 51 109.54C51.11 108.52 50.83 107.47 50.9 106.44C50.97 105.42 51.22 104.42 51.37 103.41C51.44 102.88 51.37 102.33 51.47 101.8C51.68 100.59 51.97 99.3903 52.21 98.1803C52.39 97.2403 52.55 96.3003 52.67 95.3603C52.78 94.4703 52.86 93.5803 52.93 92.6903C53 91.7303 53.12 90.7703 53.11 89.8003C53.11 88.2503 52.77 86.6703 52.77 85.1203C52.77 83.0303 53.28 80.9803 53.69 78.9203C54 77.5003 54.31 76.0803 54.62 74.6603C54.85 73.6203 55.08 72.5703 55.26 71.5303C55.28 71.4303 55.32 71.2903 55.35 71.1603C55.39 70.9903 55.43 70.8503 55.5 70.8403C55.57 70.8403 55.65 70.9403 55.73 71.1503C55.85 71.4703 56 71.8003 56.04 72.1203C56.16 72.9503 56.15 73.7803 56.3 74.6203C56.41 75.2203 56.33 75.8103 56.2 76.4003C55.88 77.9003 55.25 79.3803 54.65 80.8603C54.5 81.2403 54.6 81.6503 54.56 82.0403L54.38 83.7503C54.29 84.8603 54.22 85.9803 54.09 87.0803C54 87.8103 53.84 88.5403 53.77 89.2703C53.74 89.6103 53.77 89.9603 53.75 90.3003C53.73 90.5503 53.68 90.8003 53.64 91.0503C53.62 91.1903 53.53 91.3403 53.56 91.4703C53.72 92.3203 53.34 93.1303 53.32 93.9703C53.27 95.1403 53.11 96.3003 52.98 97.4703L52.55 101.05C52.46 101.75 52.55 102.46 52.39 103.15C52.07 104.53 52.24 105.95 52.17 107.35C52.12 108.12 52.43 108.92 52.55 109.71C52.6 110.06 52.53 110.39 52.5 110.73C52.45 111.52 52.41 112.31 52.3 113.09C52.25 113.48 52.16 113.87 51.92 114.24C51.15 115.39 51.15 116.62 51.07 117.84C50.95 119.59 50.68 121.31 50.55 123.06C50.52 123.61 50.71 124.19 50.67 124.74C50.63 125.42 50.5 126.1 50.39 126.77C50.36 126.95 50.35 127.13 50.31 127.3C50.17 127.84 50.04 128.06 49.85 128.01L49.86 128.02Z" fill="#BF925E"/>
<path d="M80.4601 86.9704C80.5401 87.1004 80.6001 87.2504 80.6201 87.3804C80.6501 87.5104 80.6201 87.6304 80.6601 87.7704C80.6901 87.8504 80.6301 87.9104 80.6601 87.9904C80.7401 88.3804 80.8001 88.7904 80.7301 89.1404C80.6701 89.4904 80.5601 89.8304 80.4501 90.1704C80.1901 91.1004 79.7101 91.9104 79.1201 92.6104C78.6401 93.1604 78.0201 93.5704 77.4401 94.0004C76.8001 94.4804 76.1001 94.8704 75.5601 95.4104C75.1801 95.7904 75.0901 96.4304 74.7501 96.8304C74.4101 97.2304 73.9301 97.5004 73.5501 97.8604C73.3401 98.0404 73.2501 98.3304 73.0401 98.5104C72.5501 98.9004 72.0301 99.2704 71.5501 99.6904C71.1801 100.02 70.8301 100.36 70.5201 100.74C70.2301 101.1 69.9701 101.47 69.7301 101.86C69.4701 102.28 69.1801 102.69 69.0201 103.16C68.7401 103.92 68.7801 104.82 68.5701 105.58C68.2601 106.59 67.5601 107.4 66.9801 108.31C66.5701 108.93 66.1401 109.56 65.7401 110.21C65.4601 110.69 65.1601 111.17 64.9501 111.69C64.9201 111.75 64.8801 111.8 64.8501 111.86C64.8001 111.94 64.7601 112.01 64.6901 112C64.6201 112 64.5501 111.91 64.4801 111.79C64.3801 111.6 64.2501 111.39 64.2401 111.21C64.1801 110.74 64.2001 110.29 64.1401 109.8C64.0801 109.45 64.2001 109.15 64.3701 108.87C64.8101 108.15 65.5601 107.56 66.2901 107.01C66.4801 106.87 66.4401 106.62 66.5101 106.43L66.9001 105.62C67.1401 105.09 67.3701 104.55 67.6701 104.06C67.8701 103.73 68.1401 103.44 68.3401 103.11C68.4301 102.96 68.4601 102.77 68.5401 102.61C68.6001 102.5 68.7001 102.4 68.7801 102.29C68.8301 102.23 68.9301 102.2 68.9301 102.12C68.9701 101.63 69.4501 101.42 69.6501 101.04C69.9401 100.5 70.3501 100.04 70.7301 99.5704C71.1201 99.0804 71.5601 98.6304 71.9801 98.1804C72.2401 97.9204 72.3601 97.5504 72.6701 97.3404C73.3001 96.9304 73.5701 96.2004 74.0301 95.6204C74.2801 95.3104 74.2801 94.7604 74.4101 94.3404C74.4701 94.1604 74.6201 94.0504 74.7301 93.9204C74.9901 93.6004 75.2201 93.2704 75.5201 92.9904C75.6601 92.8504 75.8301 92.7204 76.1201 92.7104C77.0301 92.6604 77.3401 92.0804 77.6901 91.5504C78.1901 90.7904 78.7901 90.1004 79.1901 89.2804C79.3001 89.0104 79.22 88.6504 79.34 88.3904C79.45 88.0604 79.6801 87.7804 79.8301 87.4604C79.8701 87.3804 79.9001 87.2904 79.9401 87.2104C80.1201 86.9704 80.2601 86.8904 80.4401 86.9704H80.4601Z" fill="#BF925E"/>
<path d="M80.78 96.8204C80.86 97.0704 80.8 97.1704 80.81 97.3504C80.81 97.4104 80.78 97.4104 80.78 97.4604C80.8 97.7304 80.84 98.0304 80.76 98.1604C80.7 98.3204 80.61 98.4504 80.54 98.6004C80.46 98.8204 80.35 99.0104 80.2 99.1404C80.07 99.3004 79.9 99.4104 79.72 99.5004C79.44 99.6604 79.05 99.6404 78.71 99.6904C78.33 99.7404 77.9 99.7204 77.59 99.8804C77.37 99.9904 77.37 100.44 77.17 100.59C76.98 100.74 76.67 100.72 76.44 100.81C76.31 100.85 76.27 101.02 76.13 101.05C75.82 101.1 75.48 101.1 75.18 101.15C74.93 101.17 74.7 101.22 74.48 101.29C74.28 101.36 74.09 101.46 73.91 101.58C73.72 101.71 73.49 101.77 73.34 101.98C73.09 102.29 72.94 102.82 72.69 103.15C72.32 103.53 71.73 103.47 71.18 103.47C70.81 103.48 70.4 103.4 70.02 103.39C69.75 103.39 69.45 103.33 69.2 103.36C69.17 103.36 69.13 103.36 69.1 103.35C69.06 103.35 69.01 103.33 68.98 103.27C68.95 103.2 68.94 103.12 68.95 103.03C68.97 102.89 68.98 102.72 69.01 102.62C69.11 102.37 69.22 102.14 69.33 101.93C69.4 101.74 69.53 101.71 69.68 101.71C70.05 101.69 70.59 102.03 71.1 102.28C71.23 102.35 71.26 102.19 71.34 102.15C71.46 102.09 71.59 102.06 71.71 102C71.94 101.88 72.16 101.73 72.41 101.65C72.57 101.59 72.77 101.6 72.93 101.52C73 101.49 73.04 101.38 73.11 101.34C73.16 101.31 73.23 101.31 73.29 101.29C73.32 101.29 73.39 101.33 73.4 101.29C73.47 101 73.78 101.16 73.92 101.02C74.13 100.84 74.4 100.76 74.65 100.65C74.91 100.54 75.18 100.43 75.44 100.32C75.59 100.26 75.66 100.05 75.85 100.04C76.23 100.04 76.36 99.6104 76.61 99.3904C76.75 99.2704 76.7 98.8604 76.75 98.6004C76.77 98.4904 76.86 98.4804 76.92 98.4304C77.06 98.3104 77.19 98.1704 77.36 98.1004C77.44 98.0604 77.54 98.0504 77.74 98.1704C78.34 98.5504 78.51 98.2904 78.72 98.0904C79.02 97.8104 79.42 97.6604 79.72 97.3704C79.81 97.2804 79.77 97.0104 79.87 96.9204C79.98 96.8004 80.15 96.7704 80.3 96.7004C80.34 96.6804 80.37 96.6504 80.42 96.6404C80.57 96.6204 80.68 96.6704 80.79 96.8304L80.78 96.8204Z" fill="#BF925E"/>
<path d="M65.3 71.5703C65.37 71.6903 65.44 71.8003 65.47 71.9003C65.5 72.0003 65.47 72.0703 65.53 72.1703C65.56 72.2303 65.51 72.2503 65.53 72.3103C65.85 72.9003 65.85 73.2903 65.85 73.7003C65.88 73.9803 65.9 74.2503 65.87 74.5103C65.87 74.7703 65.82 75.0303 65.76 75.2903C65.65 75.7003 65.39 76.1003 65.2 76.5303C65 77.0103 64.73 77.5103 64.69 78.0303C64.67 78.3903 65.05 78.7503 65.08 79.1103C65.12 79.4703 64.97 79.8403 64.94 80.2103C64.92 80.4103 65.06 80.5903 65.02 80.7903C64.94 81.2403 64.8 81.6903 64.71 82.1403C64.65 82.4903 64.59 82.8404 64.59 83.1904C64.59 83.5204 64.62 83.8404 64.66 84.1604C64.72 84.5104 64.71 84.8604 64.86 85.1904C65.06 85.7304 65.59 86.2303 65.81 86.7503C66.09 87.4703 65.89 88.2503 65.79 89.0303C65.72 89.5703 65.61 90.1204 65.53 90.6604C65.48 91.0604 65.4 91.4703 65.4 91.8603C65.4 91.9103 65.38 91.9603 65.37 92.0003C65.36 92.0703 65.34 92.1203 65.28 92.1403C65.21 92.1603 65.12 92.1403 65.01 92.0903C64.84 92.0103 64.65 91.9203 64.57 91.8203C64.34 91.5603 64.17 91.2803 63.92 91.0203C63.71 90.8403 63.7 90.6103 63.74 90.3803C63.8 89.8003 64.21 89.1603 64.58 88.5403C64.68 88.3803 64.52 88.2603 64.5 88.1103L64.43 87.4804C64.36 87.0804 64.28 86.6803 64.25 86.2703C64.25 86.0003 64.3 85.7203 64.27 85.4503C64.26 85.3303 64.17 85.2103 64.15 85.0903C64.14 85.0003 64.15 84.9003 64.16 84.8103C64.16 84.7603 64.23 84.6903 64.19 84.6503C63.93 84.3703 64.19 84.0403 64.11 83.7403C64.01 83.3203 64.03 82.8903 64.02 82.4603C64.01 82.0203 64.02 81.5803 64.02 81.1403C64.02 80.8803 63.87 80.6403 63.94 80.3803C64.11 79.8603 63.78 79.3703 63.72 78.8603C63.69 78.5803 63.31 78.3003 63.12 78.0203C63.04 77.8903 63.08 77.7703 63.07 77.6403C63.05 77.3403 63.01 77.0503 63.06 76.7503C63.08 76.6003 63.13 76.4503 63.35 76.3203C64.04 75.9203 63.95 75.4803 63.98 75.0303C64.02 74.3903 64.26 73.7903 64.4 73.1703C64.43 72.9703 64.28 72.7003 64.33 72.5003C64.39 72.2503 64.56 72.0403 64.7 71.8203C64.74 71.7603 64.76 71.7003 64.8 71.6503C64.97 71.5003 65.1 71.4803 65.26 71.5803L65.3 71.5703Z" fill="#BF925E"/>
<path d="M13.24 92.9302C16.48 86.4102 21.36 79.6302 28.57 78.6402C35.33 77.7202 41.62 82.3102 46.08 87.4602C54.8 97.5402 59.69 110.86 59.58 124.18L2.95996 134.32C3.32996 120 6.85996 105.76 13.24 92.9302Z" fill="#FFCE91"/>
<path d="M29.74 149.85C29.52 149.43 29.51 148.97 29.43 148.54C29.39 148.42 29.43 148.29 29.4 148.17C29.05 146.92 28.99 145.73 28.91 144.54C28.76 142.94 28.68 141.37 28.66 139.79C28.64 138.53 28.75 137.25 28.76 135.97C28.76 134.55 28.77 133.09 28.52 131.69C28.34 130.7 27.74 129.81 27.47 128.85C27.19 127.89 27.07 126.89 26.82 125.91C26.69 125.39 26.41 124.92 26.29 124.4L25.49 120.82C25.27 119.89 25.01 118.97 24.73 118.06C24.47 117.21 24.17 116.36 23.87 115.52C23.55 114.6 23.27 113.67 22.9 112.77C22.31 111.33 21.43 109.94 20.94 108.43C20.28 106.38 20.26 104.17 20.31 102.02C20.37 100.53 20.57 99.0501 20.86 97.6001C21.07 96.5401 21.35 95.5001 21.66 94.4801C21.7 94.3901 21.75 94.2501 21.79 94.1301C21.85 93.9701 21.91 93.8301 21.98 93.8301C22.05 93.8301 22.12 93.9601 22.17 94.1701C22.25 94.5001 22.35 94.8401 22.37 95.1501C22.43 95.9701 22.37 96.7601 22.54 97.5601C22.65 98.1301 22.6 98.6901 22.52 99.2501C22.31 100.69 21.9 102.2 21.63 103.76C21.55 104.16 21.75 104.54 21.81 104.93C21.89 105.49 21.97 106.06 22.08 106.62C22.3 107.71 22.59 108.78 22.84 109.87C23.01 110.59 23.12 111.32 23.32 112.03C23.42 112.36 23.59 112.66 23.69 112.98C23.77 113.22 23.82 113.47 23.88 113.71C23.91 113.85 23.89 114.02 23.97 114.13C24.45 114.85 24.43 115.73 24.76 116.51C25.2 117.59 25.53 118.72 25.9 119.83C26.28 120.97 26.63 122.12 26.98 123.27C27.18 123.94 27.53 124.56 27.66 125.26C27.89 126.65 28.57 127.91 28.97 129.26C29.18 130 29.72 130.67 30.06 131.39C30.21 131.71 30.24 132.05 30.31 132.39C30.48 133.17 30.65 133.95 30.73 134.75C30.77 135.15 30.78 135.55 30.62 135.97C30.11 137.26 30.34 138.45 30.44 139.68C30.58 141.42 30.48 143.17 30.44 144.92C30.43 145.47 30.65 146.04 30.61 146.6C30.59 147.29 30.45 147.96 30.33 148.64C30.3 148.82 30.28 149 30.24 149.17C30.08 149.71 29.95 149.92 29.76 149.86L29.74 149.85Z" fill="#BF925E"/>
<path d="M34.37 144.68C34.26 144.51 34.15 144.33 34.09 144.14C34.02 143.95 34.02 143.76 33.93 143.58C33.88 143.47 33.91 143.36 33.87 143.26C33.35 142.17 33.34 141.08 33.31 140C33.25 138.54 33.4 137.08 33.75 135.68C34 134.55 34.52 133.5 34.93 132.43C35.43 131.26 36 130.11 36.42 128.93C36.7 128.09 36.61 127.14 36.87 126.3C37.12 125.46 37.56 124.68 37.9 123.87C38.08 123.44 38.11 122.97 38.31 122.55C38.76 121.6 39.27 120.67 39.73 119.73C40.09 119 40.42 118.25 40.71 117.5C40.98 116.79 41.23 116.07 41.44 115.34C41.67 114.55 41.97 113.78 42.09 112.96C42.2 112.31 42.25 111.64 42.27 110.97C42.27 110.3 42.27 109.63 42.38 108.99C42.58 107.25 43.28 105.62 43.67 103.94C43.96 102.78 44.21 101.6 44.31 100.4C44.38 99.5201 44.38 98.6101 44.23 97.7201C44.21 97.6201 44.21 97.5101 44.19 97.4001C44.17 97.2601 44.16 97.1301 44.22 97.0901C44.28 97.0601 44.4 97.1201 44.54 97.2601C44.76 97.4801 45 97.7101 45.14 97.9701C45.5 98.6501 45.67 99.3901 45.94 100.13C46.15 100.66 46.14 101.21 46.07 101.75C45.88 103.14 45.23 104.43 44.57 105.64C44.4 105.95 44.47 106.31 44.41 106.64L44.08 108.08C43.91 109.02 43.69 109.95 43.43 110.87C43.26 111.48 42.99 112.06 42.81 112.66C42.73 112.94 42.72 113.24 42.64 113.52C42.59 113.73 42.5 113.93 42.42 114.12C42.37 114.23 42.26 114.34 42.27 114.46C42.27 115.21 41.78 115.8 41.61 116.49C41.35 117.45 40.98 118.39 40.62 119.32L39.51 122.19C39.29 122.75 39.22 123.36 38.95 123.9C38.37 124.97 38.27 126.2 37.95 127.35C37.76 127.98 37.93 128.72 37.92 129.4C37.92 129.7 37.79 129.96 37.71 130.24C37.54 130.89 37.41 131.54 37.2 132.18C37.1 132.5 36.96 132.81 36.68 133.08C35.81 133.92 35.65 134.97 35.51 136.01C35.25 137.48 34.93 138.94 34.82 140.43C34.8 140.9 35 141.39 34.97 141.86C34.93 142.44 34.88 143.01 34.82 143.59C34.81 143.74 34.81 143.89 34.79 144.05C34.69 144.52 34.58 144.72 34.39 144.69L34.37 144.68Z" fill="#BF925E"/>
<path d="M30.88 96.0601C30.99 96.1901 31.1 96.3401 31.16 96.4801C31.23 96.6301 31.23 96.7701 31.32 96.9101C31.37 96.9901 31.34 97.0801 31.38 97.1601C31.87 97.9901 31.99 98.8001 32.08 99.6001C32.28 100.69 32.31 101.76 32.23 102.84C32.16 103.7 31.91 104.54 31.73 105.4C31.53 106.35 31.25 107.29 31.18 108.25C31.14 108.92 31.49 109.61 31.49 110.28C31.49 110.95 31.31 111.62 31.24 112.28C31.2 112.63 31.31 112.99 31.25 113.34C31.11 114.14 30.92 114.94 30.77 115.74C30.66 116.36 30.56 116.98 30.51 117.61C30.46 118.2 30.44 118.78 30.44 119.37C30.44 120.01 30.38 120.64 30.46 121.28C30.57 122.3 31.01 123.33 31.12 124.34C31.26 125.72 30.9 127.08 30.64 128.45C30.45 129.39 30.23 130.34 30.01 131.28C29.86 131.97 29.69 132.67 29.59 133.36C29.58 133.44 29.54 133.52 29.53 133.6C29.5 133.71 29.47 133.81 29.4 133.82C29.33 133.82 29.24 133.76 29.15 133.63C29.01 133.42 28.84 133.21 28.79 133C28.64 132.46 28.53 131.91 28.35 131.36C28.19 130.97 28.23 130.58 28.31 130.19C28.52 129.19 29.05 128.2 29.54 127.21C29.67 126.95 29.54 126.69 29.54 126.43L29.6 125.3C29.61 124.57 29.6 123.83 29.66 123.1C29.7 122.62 29.81 122.13 29.83 121.65C29.84 121.43 29.77 121.2 29.77 120.97C29.77 120.8 29.8 120.64 29.83 120.48C29.84 120.39 29.92 120.29 29.88 120.2C29.67 119.64 29.98 119.1 29.95 118.55C29.91 117.78 30 117.01 30.05 116.24C30.11 115.45 30.17 114.66 30.23 113.87C30.27 113.41 30.14 112.94 30.24 112.49C30.47 111.57 30.2 110.64 30.17 109.72C30.17 109.21 29.8 108.69 29.63 108.18C29.55 107.95 29.6 107.73 29.6 107.51C29.6 106.99 29.56 106.47 29.61 105.95C29.63 105.69 29.68 105.43 29.9 105.18C30.58 104.4 30.48 103.59 30.46 102.79C30.44 101.64 30.58 100.49 30.57 99.3401C30.56 98.9701 30.33 98.6001 30.32 98.2301C30.31 97.7801 30.39 97.3301 30.44 96.8901C30.45 96.7701 30.45 96.6501 30.47 96.5401C30.57 96.1801 30.68 96.0301 30.87 96.0701L30.88 96.0601Z" fill="#BF925E"/>
<path d="M50.18 112.37C50.28 112.62 50.23 112.73 50.26 112.9C50.28 112.96 50.23 112.96 50.24 113.02C50.42 113.64 50.24 113.89 50.12 114.21C50.07 114.45 49.98 114.65 49.85 114.81C49.74 114.99 49.59 115.13 49.42 115.25C49.16 115.45 48.77 115.51 48.43 115.63C48.05 115.76 47.62 115.83 47.33 116.05C47.13 116.21 47.21 116.66 47.04 116.85C46.88 117.05 46.57 117.09 46.36 117.24C46.24 117.31 46.23 117.49 46.1 117.55C45.8 117.68 45.46 117.77 45.17 117.9C44.93 117.99 44.71 118.1 44.51 118.24C44.33 118.37 44.17 118.52 44.02 118.69C43.86 118.87 43.66 119.01 43.56 119.25C43.39 119.63 43.4 120.19 43.25 120.59C43 121.08 42.41 121.21 41.88 121.41C41.52 121.55 41.1 121.63 40.73 121.76C40.47 121.87 40.16 121.92 39.92 122.05C39.89 122.06 39.85 122.07 39.82 122.08C39.77 122.09 39.73 122.1 39.68 122.05C39.63 122 39.59 121.92 39.57 121.83C39.54 121.69 39.49 121.52 39.49 121.41C39.51 121.13 39.54 120.87 39.58 120.62C39.58 120.41 39.71 120.33 39.85 120.27C40.21 120.1 40.86 120.22 41.44 120.28C41.59 120.3 41.57 120.13 41.64 120.06C41.74 119.96 41.87 119.88 41.96 119.78C42.15 119.58 42.33 119.36 42.55 119.2C42.7 119.09 42.89 119.03 43.03 118.91C43.09 118.85 43.1 118.74 43.16 118.68C43.2 118.63 43.27 118.61 43.32 118.58C43.35 118.56 43.43 118.59 43.43 118.54C43.42 118.23 43.77 118.3 43.89 118.12C44.06 117.87 44.31 117.72 44.54 117.54C44.77 117.35 45.02 117.18 45.26 117C45.4 116.9 45.43 116.67 45.62 116.62C46.01 116.52 46.05 116.06 46.26 115.78C46.38 115.63 46.26 115.23 46.26 114.96C46.26 114.84 46.35 114.81 46.41 114.75C46.53 114.6 46.64 114.43 46.81 114.31C46.89 114.25 46.99 114.22 47.21 114.3C47.88 114.56 48.01 114.26 48.2 114.02C48.47 113.68 48.86 113.45 49.14 113.11C49.22 113 49.16 112.73 49.24 112.62C49.34 112.48 49.52 112.42 49.67 112.33C49.71 112.31 49.74 112.27 49.78 112.25C49.93 112.21 50.04 112.25 50.17 112.39L50.18 112.37Z" fill="#BF925E"/>
<path d="M28.6 129.74C28.46 129.7 28.33 129.66 28.24 129.6C28.14 129.54 28.11 129.46 27.99 129.42C27.92 129.39 27.93 129.34 27.87 129.31C27.21 129.05 26.9 128.69 26.58 128.33C26.09 127.87 25.73 127.37 25.43 126.8C25.2 126.34 25.1 125.78 24.93 125.26C24.74 124.68 24.6 124.04 24.28 123.52C24.05 123.16 23.5 123.03 23.23 122.69C22.97 122.36 22.85 121.91 22.65 121.54C22.55 121.34 22.32 121.23 22.22 121.02C22.02 120.54 21.86 120.03 21.67 119.53C21.51 119.16 21.35 118.78 21.15 118.44C20.96 118.12 20.75 117.81 20.52 117.52C20.27 117.2 20.08 116.85 19.75 116.58C19.26 116.14 18.52 115.87 18.02 115.44C17.37 114.83 17.13 113.94 16.8 113.1C16.58 112.52 16.4 111.91 16.2 111.32C16.05 110.89 15.92 110.44 15.72 110.04C15.7 109.99 15.69 109.93 15.68 109.88C15.66 109.81 15.65 109.74 15.7 109.7C15.75 109.65 15.85 109.64 15.98 109.65C16.18 109.67 16.39 109.68 16.52 109.75C16.86 109.93 17.16 110.14 17.51 110.31C17.79 110.41 17.91 110.63 17.99 110.88C18.23 111.49 18.17 112.3 18.17 113.09C18.17 113.29 18.37 113.35 18.47 113.48C18.61 113.67 18.72 113.89 18.86 114.08C19.14 114.45 19.43 114.81 19.67 115.21C19.83 115.47 19.93 115.78 20.1 116.03C20.18 116.15 20.32 116.22 20.41 116.33C20.47 116.41 20.51 116.52 20.56 116.61C20.59 116.67 20.56 116.76 20.63 116.78C21.02 116.93 20.98 117.39 21.22 117.64C21.55 118 21.78 118.44 22.04 118.85C22.31 119.27 22.56 119.71 22.82 120.14C22.97 120.39 23.25 120.55 23.35 120.84C23.53 121.43 24.11 121.74 24.49 122.18C24.7 122.43 25.19 122.47 25.53 122.63C25.68 122.7 25.73 122.84 25.82 122.95C26.03 123.21 26.26 123.45 26.42 123.74C26.5 123.89 26.56 124.05 26.48 124.3C26.23 125.09 26.6 125.44 26.91 125.86C27.34 126.45 27.61 127.14 27.98 127.77C28.1 127.97 28.42 128.07 28.53 128.28C28.67 128.53 28.71 128.83 28.78 129.11C28.8 129.18 28.83 129.25 28.84 129.33C28.84 129.58 28.77 129.7 28.58 129.75L28.6 129.74Z" fill="#BF925E"/>
</g>
<path d="M113.27 194.79C111.03 190.3 107.66 186.09 107.66 186.09C107.66 186.09 101.49 145.42 94.48 141.77L65.87 148.22L37.26 226.2L47.64 230.97L81.3 175.71L110.47 227.88L121.97 222.83C121.97 222.83 115.52 199.27 113.27 194.78V194.79Z" fill="#B45D49"/>
<g style="mix-blend-mode:multiply">
<path d="M71.19 162.53C72.03 164.77 74.2799 167.58 74.2799 167.58C74.2799 167.58 70.3499 168.42 70.3499 169.26C70.3499 170.1 72.3099 170.66 72.3099 170.66L45.45 229.97L47.63 230.97L81.29 175.71L75.9599 166.17C75.9599 166.17 70.35 160.28 71.19 162.52V162.53Z" fill="#BCBEC0"/>
</g>
<mask id="mask1_905_75" style="mask-type:luminance" maskUnits="userSpaceOnUse" x="37" y="142" width="20" height="19">
<path d="M52.02 142.42L48.71 146.39C48.71 146.39 41.56 148.2 40.4 149.61C39.24 151.02 35.3 161.28 39.49 160.52C43.68 159.76 46.38 155.01 47.7 154.6C49.02 154.19 52.57 152.94 53.12 151.87C53.67 150.8 56.95 145.98 56.95 145.98L52.02 142.41V142.42Z" fill="white"/>
</mask>
<g mask="url(#mask1_905_75)">
<path d="M52.02 142.42L48.71 146.39C48.71 146.39 41.56 148.2 40.4 149.61C39.24 151.02 35.3 161.28 39.49 160.52C43.68 159.76 46.38 155.01 47.7 154.6C49.02 154.19 52.57 152.94 53.12 151.87C53.67 150.8 56.95 145.98 56.95 145.98L52.02 142.41V142.42Z" fill="#F0D0B4"/>
<path d="M41.43 151.19C39.4 154.27 37.84 157.57 36.74 161.09C36.52 161.78 37.61 162.08 37.82 161.39C38.89 157.96 40.42 154.76 42.4 151.76C42.8 151.16 41.83 150.59 41.43 151.19Z" fill="#230E08"/>
<path d="M43.8099 152.87C41.8699 156.42 40.3699 160.14 39.3199 164.05C39.1299 164.75 40.2099 165.05 40.3999 164.35C41.4199 160.53 42.8699 156.9 44.7699 153.43C45.1199 152.8 44.1499 152.23 43.7999 152.86L43.8099 152.87Z" fill="#230E08"/>
</g>
<path d="M69.51 45.8503C66.14 45.7103 51.98 47.1103 50.44 50.6203C48.9 54.1303 50.86 56.7903 50.86 56.7903C50.86 56.7903 47.77 61.0003 49.46 68.4303C51.15 75.8603 55.77 75.3003 55.91 78.6703C56.05 82.0403 52.68 83.3003 52.96 88.7703C53.24 94.2403 54.36 94.2403 55.48 95.6403C56.6 97.0403 52.39 104.05 57.86 107.56C63.33 111.07 70.34 108.82 70.34 108.82L80.3 96.7603L83.1 75.5803L69.5 45.8503H69.51Z" fill="#FAA025"/>
<path d="M59.41 57.6301C59.41 57.6301 59.83 63.1001 63.2 66.3301C66.57 69.5601 68.11 69.4201 68.53 70.4001C68.95 71.3801 68.81 77.1301 69.79 77.1301C70.77 77.1301 73.44 74.8901 73.44 74.8901L74.56 83.0201C74.56 83.0201 72.88 90.3101 72.46 90.5901C72.04 90.8701 70.08 91.7101 70.08 91.7101C70.08 91.7101 70.78 86.1001 68.68 86.1001C66.58 86.1001 62.09 88.7601 59.7 87.7801C57.31 86.8001 55.35 78.8001 54.93 78.8001C54.51 78.8001 52.55 76.4201 52.97 75.4301C53.39 74.4401 56.06 75.0101 56.9 73.4701C57.74 71.9301 52.97 65.0601 59.42 57.6201L59.41 57.6301Z" fill="#F0D0B4"/>
<path d="M59.29 70.3903L59.66 73.9003C59.74 74.6103 60.86 74.6203 60.78 73.9003L60.41 70.3903C60.33 69.6803 59.21 69.6703 59.29 70.3903Z" fill="#230E08"/>
<path d="M58.53 67.0504C59.12 66.2404 60.31 66.1903 60.93 67.0003C61.36 67.5603 62.34 67.0003 61.9 66.4303C60.75 64.9303 58.68 64.9304 57.56 66.4804C57.14 67.0704 58.11 67.6304 58.53 67.0504Z" fill="#FAA025"/>
<path opacity="0.6" d="M64.36 79.86C65.7131 79.86 66.81 78.7631 66.81 77.41C66.81 76.0569 65.7131 74.96 64.36 74.96C63.0069 74.96 61.91 76.0569 61.91 77.41C61.91 78.7631 63.0069 79.86 64.36 79.86Z" fill="#C9553A"/>
<mask id="mask2_905_75" style="mask-type:luminance" maskUnits="userSpaceOnUse" x="52" y="57" width="23" height="35">
<path d="M59.41 57.6301C59.41 57.6301 59.83 63.1001 63.2 66.3301C66.57 69.5601 68.11 69.4201 68.53 70.4001C68.95 71.3801 68.81 77.1301 69.79 77.1301C70.77 77.1301 73.44 74.8901 73.44 74.8901L74.56 83.0201C74.56 83.0201 72.88 90.3101 72.46 90.5901C72.04 90.8701 70.08 91.7101 70.08 91.7101C70.08 91.7101 70.78 86.1001 68.68 86.1001C66.58 86.1001 62.09 88.7601 59.7 87.7801C57.31 86.8001 55.35 78.8001 54.93 78.8001C54.51 78.8001 52.55 76.4201 52.97 75.4301C53.39 74.4401 56.06 75.0101 56.9 73.4701C57.74 71.9301 52.97 65.0601 59.42 57.6201L59.41 57.6301Z" fill="white"/>
</mask>
<g mask="url(#mask2_905_75)">
<path d="M56.86 84.39C57.9 83.34 58.86 82.23 59.77 81.06C60.21 80.49 59.24 79.93 58.8 80.49C57.96 81.58 57.04 82.61 56.07 83.59C55.56 84.1 56.35 84.9 56.86 84.38V84.39Z" fill="#230E08"/>
</g>
<path d="M85.8699 91.3804L82.6899 121.67L88.8599 136.82C88.8599 136.82 97.2699 125.79 97.2699 122.8C97.2699 119.81 85.8599 91.3804 85.8599 91.3804H85.8699Z" fill="#806D70"/>
<path d="M69.5099 45.8501C69.5099 45.8501 74.2799 85.9601 71.7499 87.9201C69.2199 89.8801 66.6999 89.8801 66.4199 91.0101C66.1399 92.1401 67.2599 92.9701 67.2599 92.9701C67.2599 92.9701 56.3199 104.19 55.7599 109.52C55.1999 114.85 62.2099 122.42 61.9299 124.39C61.6499 126.36 60.2499 147.39 63.0499 150.2C65.8499 153.01 96.4299 147.11 96.7099 144.31C96.9899 141.51 87.1699 126.36 86.8899 122.71C86.6099 119.06 88.2899 107.28 88.2899 101.39C88.2899 95.5001 86.0499 87.6501 86.0499 87.6501C86.0499 87.6501 99.5099 73.6301 96.9899 59.6001C94.4699 45.5801 69.4999 45.8601 69.4999 45.8601L69.5099 45.8501Z" fill="#A78F93"/>
<path d="M71.6599 140C73.7199 136.07 78.0199 111.39 78.0199 111.39L61.3399 136.97C61.3099 141.77 61.5399 146.63 62.3999 149.01C65.7499 146.36 70.3899 142.43 71.6599 140Z" fill="#87686D"/>
<path opacity="0.6" d="M56.91 73.4102C56.91 73.4102 56.9 73.4502 56.88 73.4702C56.04 75.0102 53.37 74.4502 52.95 75.4302C52.53 76.4102 54.49 78.8002 54.91 78.8002C56.24 78.3602 57.61 74.5602 56.9 73.4102H56.91Z" fill="#C9553A"/>
<path d="M66.9799 103.35C66.9799 103.35 61.5599 123.36 59.6899 126.16C57.8199 128.96 47.1599 142.24 47.3499 143.92C47.5399 145.6 53.5199 150.09 55.9499 149.34C58.3799 148.59 70.9099 133.82 72.9699 130.27C75.0299 126.72 82.3199 105.21 82.3199 105.21L66.9899 103.34L66.9799 103.35Z" fill="#A78F93"/>
<path d="M73.6799 131.54C77.1299 123.22 80.4999 114.87 83.7799 106.49C84.0399 105.82 82.9599 105.53 82.6999 106.19C79.4199 114.57 76.0499 122.92 72.5999 131.24C72.3199 131.91 73.4099 132.2 73.6799 131.54Z" fill="#87686D"/>
<path d="M62.06 122.01C63.73 117.59 64.52 112.98 65.56 108.39C66.6 103.8 67.98 97.64 72.02 94.8C72.61 94.39 72.05 93.41 71.45 93.83C67.85 96.36 66.27 101.24 65.16 105.31C63.68 110.77 62.98 116.39 60.97 121.7C60.71 122.38 61.8 122.67 62.05 122L62.06 122.01Z" fill="#87686D"/>
<path d="M38.0899 217.51C40.5599 216.27 52.3999 223.4 52.9599 224.52C53.5199 225.64 42.0199 248.08 40.6199 248.08C39.2199 248.08 36.9699 246.96 36.9699 246.96L38.0899 242.47L33.0399 244.43C33.0399 244.43 15.9299 237.42 15.9299 236.3C15.9299 235.18 29.9499 233.78 31.3599 231.81C32.7699 229.84 36.9699 218.07 38.0899 217.5V217.51Z" fill="#230E08"/>
<path d="M106.53 224.52C107.11 222.41 120.55 217.79 121.68 218.35C122.81 218.91 131.78 238.55 131.78 238.55L129.54 241.07L127.3 237.7C127.3 237.7 121.69 250.32 120.29 250.6C118.89 250.88 105.7 251.44 105.7 250.32C105.7 249.2 113.55 243.87 113.55 243.87C113.55 243.87 105.7 227.6 106.54 224.52H106.53Z" fill="#230E08"/>
<path d="M121.1 164.84C121.47 165.16 121.77 165.54 122.1 165.92C122.31 166.18 122.65 166.39 122.78 166.71C123.07 167.37 123.2 168.08 123.29 168.79C123.38 169.55 123.39 170.32 123.27 171.07C123.16 171.8 122.88 172.49 122.67 173.16C122.65 173.21 122.63 173.26 122.62 173.31C122.62 173.31 122.62 173.3 122.61 173.29C122.27 172.9 121.74 172.74 121.23 172.78C121.11 172.71 121 172.65 120.95 172.65C120.81 172.65 120.8 172.77 120.78 172.88C120.72 172.9 120.66 172.91 120.6 172.93C120.31 173.06 120.05 173.26 119.84 173.53C119.63 173.8 119.51 174.19 119.54 174.56L119.56 174.76L119.62 174.86C119.75 175.07 119.94 175.25 120.14 175.38C120.17 175.4 120.2 175.4 120.23 175.42C120.23 175.49 120.23 175.56 120.23 175.63L120.28 176.1L120.86 176.26C121.28 176.37 121.75 176.28 122.08 176.07C122.42 175.87 122.66 175.59 122.82 175.26C122.92 175.06 122.97 174.85 122.99 174.63C123.38 174.12 123.6 173.55 123.77 173C123.97 172.41 124.08 171.79 124.17 171.17C124.27 170.44 124.48 169.67 124.39 168.9C124.23 167.37 123.68 165.77 122.47 164.75C122.19 164.51 121.99 164.23 122.02 163.7C122.05 163.33 121.82 163.05 120.63 164.04C120.65 164.23 120.61 164.38 120.67 164.45C120.8 164.6 120.95 164.72 121.09 164.85L121.1 164.84ZM121.73 174.04C121.85 174.16 121.9 174.34 121.9 174.52C121.74 174.65 121.55 174.74 121.31 174.76C121.38 174.47 121.5 174.2 121.66 173.96C121.68 173.98 121.7 174 121.72 174.02L121.74 174.04H121.73Z" fill="#421714"/>
<path d="M114.86 169.79C114.92 169.22 114.75 168.69 114.47 168.28C114.19 167.87 113.8 167.56 113.34 167.39C112.89 167.21 112.33 167.19 111.87 167.37C110.73 167.84 110.3 169.11 110.69 170.07C110.82 170.43 111.08 170.74 111.38 170.95C111.57 171.08 111.77 171.16 111.98 171.23C112.18 171.38 112.39 171.5 112.63 171.56C113.12 171.68 113.7 171.51 114.05 171.23C114.16 171.2 114.26 171.19 114.37 171.16C115.14 170.88 115.91 170.52 116.47 169.88C117.02 169.24 117.44 168.49 117.66 167.67C117.88 166.86 117.88 165.98 117.59 165.2C117.45 164.83 117.42 164.48 117.64 163.98C117.82 163.63 117.67 163.23 116.21 163.74C116.16 163.92 116.07 164.05 116.09 164.13C116.15 164.3 116.22 164.48 116.31 164.65C116.48 165.08 116.58 165.56 116.65 166.05C116.69 166.38 116.85 166.75 116.77 167.09C116.61 167.8 116.23 168.45 115.79 168.99C115.52 169.32 115.19 169.62 114.84 169.87C114.84 169.84 114.85 169.82 114.86 169.79ZM113.73 169.52C113.73 169.76 113.67 170.02 113.52 170.24C113.47 170.32 113.39 170.37 113.31 170.43C113.03 170.43 112.76 170.42 112.52 170.36C112.37 170.18 112.32 169.92 112.35 169.65C112.4 169.24 112.56 168.83 112.76 168.47C112.79 168.43 112.91 168.42 112.84 168.35C112.84 168.35 112.81 168.33 112.8 168.32C113.08 168.37 113.37 168.51 113.57 168.75C113.76 168.98 113.73 169.29 113.72 169.53L113.73 169.52Z" fill="#421714"/>
<path d="M113.11 145.81L109.77 148.46L108.75 147.22L112.49 145.13C112.49 145.13 105.96 139.96 106.41 135.44C106.41 135.44 110.04 135.9 113.79 142.36C113.79 142.36 111.4 133.76 113.78 129.53C114.01 129.65 121.44 132.92 115.44 142.86C116.12 142.74 123.26 133.39 129.56 134.65C129.33 135.01 129.79 140.94 116.97 144.49C117.54 144.55 124.97 144.02 127.87 148.73C127.87 148.73 121.8 150.92 116.3 146.51C116.41 146.81 118.35 151.37 117.33 153.93C117.33 153.93 112.11 150.74 113.13 145.81H113.11Z" fill="#ECC18A"/>
<path d="M42.4899 135.51L45.1199 137.2L44.4999 138.2L42.1699 136.1C42.1699 136.1 40.1299 141.84 36.8999 142.59C36.8999 142.59 36.3599 139.97 39.9499 135.85C39.9499 135.85 34.5599 139.53 31.0799 138.89C31.1099 138.71 31.6199 132.79 39.9099 134.6C39.6699 134.16 31.5099 131.42 30.8899 126.77C31.1899 126.84 35.1899 125.12 40.6699 133.15C40.5799 132.74 38.4599 127.73 41.0299 124.61C41.0299 124.61 43.9799 128.29 42.2299 133.14C42.4099 132.99 45.1099 130.58 47.1199 130.68C47.1199 130.68 46.1499 135.05 42.4899 135.51Z" fill="#FFCE91"/>
<mask id="mask3_905_75" style="mask-type:luminance" maskUnits="userSpaceOnUse" x="6" y="163" width="18" height="11">
<path d="M20.06 171.57L23.02 173.3L23.65 171.55L20.52 170.45C20.52 170.45 20.56 165.84 16.97 163.94C13.38 162.04 6.69995 164.3 6.69995 164.3C6.69995 164.3 9.48995 170.76 13.52 171.78C17.55 172.81 20.07 171.56 20.07 171.56L20.06 171.57Z" fill="white"/>
</mask>
<g mask="url(#mask3_905_75)">
<path d="M20.06 171.57L23.02 173.3L23.65 171.55L20.52 170.45C20.52 170.45 20.56 165.84 16.97 163.94C13.38 162.04 6.69995 164.3 6.69995 164.3C6.69995 164.3 9.48995 170.76 13.52 171.78C17.55 172.81 20.07 171.56 20.07 171.56L20.06 171.57Z" fill="#BF925E"/>
<path d="M2.20993 164.76C2.51993 164.62 2.83993 164.62 3.15993 164.61C3.49993 164.56 3.84993 164.64 4.19993 164.69C5.31993 164.86 6.39993 165.21 7.44993 165.54C7.85993 165.68 8.22993 165.93 8.63993 166.03C8.93993 166.12 9.27993 166.09 9.60993 166.08C9.95993 166.08 10.3199 166.05 10.6699 166.08C10.8599 166.09 11.0299 166.17 11.2099 166.2C10.9499 166.28 10.7099 166.43 10.4799 166.57C10.2699 166.7 10.0499 166.8 9.83993 166.92C9.51993 167.1 9.19993 167.27 8.85993 167.37C8.60993 167.45 8.34993 167.54 8.09993 167.62C7.94993 167.66 7.76993 167.59 7.59993 167.58C7.42993 167.57 7.25993 167.6 7.08993 167.58C6.75993 167.54 6.42993 167.44 6.12993 167.43C5.88993 167.43 5.64993 167.49 5.42993 167.56C5.28993 167.6 5.15993 167.64 5.03993 167.68C5.00993 167.69 4.97993 167.7 4.94993 167.72C4.84993 167.78 4.70993 167.87 4.55993 167.89C4.51993 167.9 4.46993 167.92 4.40993 167.92C4.40993 167.97 4.40993 168.09 4.48993 168.09C4.57993 168.09 4.64993 168.08 4.70993 168.09C4.77993 168.1 4.83993 168.14 4.89993 168.13C5.04993 168.11 5.18993 168.2 5.33993 168.25C5.83993 168.37 6.37993 168.56 6.91993 168.63C7.12993 168.65 7.36993 168.79 7.56993 168.75C7.71993 168.72 7.83993 168.58 7.95993 168.46C8.08993 168.33 8.19993 168.16 8.32993 168.05C8.40993 167.98 8.50993 167.98 8.58993 167.9C8.80993 167.69 9.03993 167.55 9.28993 167.46C9.46993 167.39 9.67993 167.4 9.86993 167.37C10.0999 167.34 10.3299 167.29 10.5399 167.21C10.8599 167.09 11.1699 166.99 11.4499 166.78C11.5999 166.66 11.7399 166.53 11.9199 166.51C11.9599 166.51 11.9899 166.46 12.0299 166.43C12.0499 166.41 12.0699 166.38 12.0899 166.35C12.0899 166.35 12.0899 166.35 12.0899 166.34C12.4099 166.42 12.7299 166.53 13.0399 166.65C13.4299 166.83 13.7999 167.06 14.1699 167.3C14.5999 167.59 15.0499 167.84 15.4899 168.1C15.8199 168.29 16.1399 168.48 16.4599 168.68C16.4899 168.7 16.5199 168.71 16.5499 168.73C16.4899 168.72 16.4399 168.71 16.3799 168.7C15.6799 168.66 15.0599 168.95 14.4299 169.19C14.0899 169.33 13.7299 169.43 13.3899 169.55C12.8699 169.74 12.3499 169.91 11.7999 170C11.3999 170.08 10.9999 170.17 10.5999 170.25C10.3699 170.29 10.1099 170.22 9.85993 170.21C9.59993 170.21 9.34993 170.24 9.07993 170.23C8.57993 170.21 8.06993 170.12 7.58993 170.15C7.19993 170.17 6.80993 170.27 6.42993 170.37C6.30993 170.4 6.17993 170.44 6.05993 170.48L5.87993 170.54C5.87993 170.54 5.79993 170.58 5.75993 170.59C5.71993 170.61 5.66993 170.61 5.62993 170.64C5.47993 170.7 5.32993 170.79 5.18993 170.77C5.14993 170.77 5.08993 170.74 5.04993 170.69C5.01993 170.73 4.92993 170.87 5.04993 170.94C5.15993 171 5.25993 171 5.35993 171.03C5.45993 171.05 5.55993 171.09 5.65993 171.08C5.87993 171.05 6.10993 171.08 6.34993 171.11C7.10993 171.15 7.89993 171.29 8.66993 171.34C8.96993 171.36 9.28993 171.48 9.57993 171.45C9.79993 171.42 9.99993 171.28 10.1999 171.15C10.4099 171.02 10.6199 170.84 10.8399 170.73C10.9799 170.66 11.1199 170.66 11.2599 170.58C11.6299 170.37 12.0199 170.23 12.4199 170.14C12.7099 170.08 12.9999 170.08 13.2999 170.06C13.6499 170.04 13.9999 169.98 14.3399 169.9C14.8399 169.78 15.3399 169.65 15.8099 169.42C16.0599 169.28 16.2999 169.14 16.5699 169.1C16.6299 169.09 16.6899 169.04 16.7399 169.01C16.7699 168.99 16.7999 168.96 16.8199 168.94C17.0199 169.06 17.2099 169.17 17.4099 169.29C17.5899 169.39 17.7799 169.47 17.9599 169.57C18.1299 169.68 18.2899 169.8 18.4399 169.94C18.5099 170 18.6099 170.04 18.6899 170.08C18.7499 170.11 18.8099 170.13 18.8599 170.15C18.8999 170.16 18.9499 170.17 18.9499 170.15C18.9499 170.14 18.9299 170.08 18.9099 170.04C18.7999 169.87 18.7099 169.66 18.5799 169.5C18.0799 168.89 17.4299 168.45 16.7499 168.08C16.6299 167.66 16.4199 167.3 16.1899 166.95C16.2399 166.94 16.2899 166.92 16.3299 166.91C16.4199 166.87 16.4499 166.81 16.4999 166.76C16.5399 166.7 16.5799 166.65 16.5899 166.58C16.6199 166.45 16.6299 166.31 16.6199 166.17C16.6199 166.02 16.6499 165.87 16.6499 165.73C16.6599 165.51 16.6599 165.29 16.7399 165.09C16.7899 164.94 16.8199 164.78 16.8599 164.63C16.8899 164.54 17.0199 164.48 17.0999 164.4C17.1799 164.32 17.2099 164.22 17.2899 164.13C17.4399 163.96 17.6399 163.82 17.7299 163.61C17.7999 163.44 17.7799 163.24 17.7299 163.03C17.7099 162.96 17.6999 162.9 17.6699 162.83C17.6399 162.76 17.5999 162.7 17.5499 162.63C17.5299 162.6 17.5099 162.56 17.4799 162.54C17.3899 162.44 17.1999 162.38 17.0699 162.35C17.0299 162.35 16.9799 162.35 16.9399 162.34C16.9199 162.39 16.8599 162.46 16.9099 162.47C16.9699 162.48 17.0199 162.51 17.0399 162.55C17.0599 162.59 17.0499 162.64 17.0799 162.68C17.1499 162.77 17.0799 162.88 17.0199 162.96C16.8799 163.26 16.5699 163.45 16.3499 163.7C16.2599 163.79 16.0599 163.86 16.0199 163.96C15.9899 164.04 16.0799 164.14 16.1399 164.24C16.2099 164.35 16.3199 164.46 16.3599 164.56C16.3899 164.62 16.3399 164.67 16.3699 164.73C16.4699 164.92 16.4799 165.08 16.4299 165.23C16.3999 165.34 16.2999 165.43 16.2199 165.52C16.1299 165.63 16.0699 165.75 16.0199 165.88C15.9599 166.07 15.8899 166.25 15.9299 166.47C15.9399 166.52 15.9499 166.57 15.9599 166.62C15.9299 166.58 15.8999 166.54 15.8799 166.49C15.6799 166.19 15.5199 165.87 15.3299 165.57C15.0399 165.11 14.7699 164.65 14.5299 164.17C14.3499 163.81 14.1299 163.47 13.9099 163.14C13.7799 162.95 13.7499 162.68 13.6399 162.46C13.5299 162.22 13.3599 162.02 13.2199 161.79C12.9499 161.35 12.6599 160.89 12.2599 160.55C11.9299 160.28 11.5399 160.1 11.1399 159.95C10.8799 159.85 10.6199 159.79 10.3399 159.76C10.2699 159.75 10.2099 159.74 10.1299 159.74C9.88993 159.74 9.64993 159.8 9.40993 159.85C9.34993 159.87 9.28993 159.9 9.21993 159.92C9.27993 159.97 9.32993 160.09 9.43993 160.07C9.54993 160.05 9.65993 160.05 9.76993 160.07C9.86993 160.09 9.96993 160.15 10.0699 160.16C10.2999 160.19 10.4799 160.36 10.6699 160.5C11.2799 160.94 11.7299 161.55 12.1199 162.12C12.2699 162.34 12.3199 162.65 12.4799 162.84C12.5999 162.99 12.7899 163.07 12.9899 163.17C13.1799 163.29 13.4199 163.38 13.5899 163.53C13.6999 163.62 13.7499 163.75 13.8599 163.85C14.1699 164.11 14.4099 164.44 14.5799 164.79C14.6999 165.04 14.7699 165.33 14.8399 165.6C14.9299 165.93 15.0499 166.25 15.1999 166.56C15.3599 166.91 15.5399 167.26 15.7599 167.58C15.3799 167.39 14.9999 167.2 14.5999 167.04C13.8399 166.72 13.0599 166.43 12.2999 166.12C11.7299 165.89 11.1499 165.7 10.5599 165.53C10.2199 165.43 9.90993 165.2 9.56993 165.07C9.20993 164.93 8.82993 164.82 8.45993 164.7C7.74993 164.45 7.03993 164.17 6.28993 164.04C5.68993 163.94 5.06993 163.94 4.45993 163.98C4.06993 163.98 3.66993 164.05 3.28993 164.12C3.18993 164.14 3.08993 164.15 2.99993 164.18C2.67993 164.28 2.35993 164.43 2.04993 164.55C1.96993 164.59 1.89993 164.64 1.79993 164.69C1.90993 164.71 2.02993 164.81 2.18993 164.76H2.20993ZM6.82993 168.13L6.79993 167.99C6.81993 167.99 6.83993 168.01 6.85993 168.03L6.88993 168.19L6.82993 168.13ZM8.60993 170.82L8.58993 170.68C8.60993 170.68 8.63993 170.7 8.66993 170.72L8.68993 170.89L8.60993 170.83V170.82ZM16.8899 163.83L17.0299 163.86C17.0199 163.86 16.9999 163.87 16.9799 163.88L16.8199 163.84H16.8999L16.8899 163.83ZM12.5099 161.83V161.73L12.6099 161.63C12.6199 161.65 12.6199 161.68 12.6299 161.71L12.5099 161.83ZM7.68993 164.93L7.65993 165.09L7.56993 165L7.59993 164.86C7.62993 164.88 7.65993 164.9 7.69993 164.93H7.68993Z" fill="#966A48"/>
</g>
</g>
<defs>
<clipPath id="clip0_905_75">
<rect width="149.53" height="251" fill="white"/>
</clipPath>
</defs>
</svg>
