<svg width="70" height="22" viewBox="0 0 70 22" fill="none" xmlns="http://www.w3.org/2000/svg">
<path d="M15.816 10.816C16 10.816 16.132 10.856 16.212 10.936C16.3 11.016 16.344 11.12 16.344 11.248C16.344 11.456 16.28 11.64 16.152 11.8C16.032 11.96 15.84 12.044 15.576 12.052C14.944 12.06 14.376 12.012 13.872 11.908C13.312 13.1 12.636 14.092 11.844 14.884C11.06 15.668 10.284 16.06 9.516 16.06C8.812 16.06 8.284 15.688 7.932 14.944C7.58 14.192 7.38 13.188 7.332 11.932C6.852 13.324 6.308 14.36 5.7 15.04C5.1 15.72 4.46 16.06 3.78 16.06C3.012 16.06 2.432 15.584 2.04 14.632C1.648 13.672 1.452 12.384 1.452 10.768C1.452 9.592 1.556 8.3 1.764 6.892C1.82 6.492 1.92 6.216 2.064 6.064C2.216 5.904 2.452 5.824 2.772 5.824C3.012 5.824 3.196 5.876 3.324 5.98C3.46 6.084 3.528 6.276 3.528 6.556C3.528 6.612 3.52 6.72 3.504 6.88C3.264 8.52 3.144 9.916 3.144 11.068C3.144 12.14 3.236 12.968 3.42 13.552C3.604 14.136 3.852 14.428 4.164 14.428C4.444 14.428 4.78 14.136 5.172 13.552C5.572 12.96 5.968 12.088 6.36 10.936C6.752 9.776 7.084 8.396 7.356 6.796C7.42 6.428 7.536 6.176 7.704 6.04C7.88 5.896 8.116 5.824 8.412 5.824C8.66 5.824 8.84 5.88 8.952 5.992C9.072 6.096 9.132 6.256 9.132 6.472C9.132 6.6 9.124 6.7 9.108 6.772C8.884 8.076 8.772 9.38 8.772 10.684C8.772 11.572 8.8 12.28 8.856 12.808C8.92 13.336 9.036 13.74 9.204 14.02C9.38 14.292 9.632 14.428 9.96 14.428C10.344 14.428 10.772 14.14 11.244 13.564C11.716 12.98 12.148 12.256 12.54 11.392C12.052 11.088 11.684 10.696 11.436 10.216C11.188 9.728 11.064 9.168 11.064 8.536C11.064 7.904 11.16 7.372 11.352 6.94C11.552 6.5 11.82 6.172 12.156 5.956C12.5 5.74 12.88 5.632 13.296 5.632C13.808 5.632 14.212 5.816 14.508 6.184C14.812 6.552 14.964 7.056 14.964 7.696C14.964 8.6 14.768 9.604 14.376 10.708C14.784 10.78 15.264 10.816 15.816 10.816ZM12.276 8.452C12.276 9.236 12.528 9.816 13.032 10.192C13.344 9.296 13.5 8.556 13.5 7.972C13.5 7.636 13.456 7.392 13.368 7.24C13.28 7.08 13.16 7 13.008 7C12.792 7 12.616 7.128 12.48 7.384C12.344 7.632 12.276 7.988 12.276 8.452ZM20.5296 13.324C20.6336 13.324 20.7136 13.372 20.7696 13.468C20.8336 13.564 20.8656 13.696 20.8656 13.864C20.8656 14.184 20.7896 14.432 20.6376 14.608C20.3416 14.968 19.9216 15.3 19.3776 15.604C18.8416 15.908 18.2656 16.06 17.6496 16.06C16.8096 16.06 16.1576 15.832 15.6936 15.376C15.2296 14.92 14.9976 14.296 14.9976 13.504C14.9976 12.952 15.1136 12.44 15.3456 11.968C15.5776 11.488 15.8976 11.108 16.3056 10.828C16.7216 10.548 17.1896 10.408 17.7096 10.408C18.1736 10.408 18.5456 10.548 18.8256 10.828C19.1056 11.1 19.2456 11.472 19.2456 11.944C19.2456 12.496 19.0456 12.972 18.6456 13.372C18.2536 13.764 17.5856 14.076 16.6416 14.308C16.8416 14.676 17.2216 14.86 17.7816 14.86C18.1416 14.86 18.5496 14.736 19.0056 14.488C19.4696 14.232 19.8696 13.9 20.2056 13.492C20.3016 13.38 20.4096 13.324 20.5296 13.324ZM17.5056 11.584C17.2096 11.584 16.9576 11.756 16.7496 12.1C16.5496 12.444 16.4496 12.86 16.4496 13.348V13.372C16.9216 13.26 17.2936 13.092 17.5656 12.868C17.8376 12.644 17.9736 12.384 17.9736 12.088C17.9736 11.936 17.9296 11.816 17.8416 11.728C17.7616 11.632 17.6496 11.584 17.5056 11.584ZM21.4605 9.616C21.1245 9.616 20.8725 9.54 20.7045 9.388C20.5365 9.228 20.4525 9.008 20.4525 8.728C20.4525 8.448 20.5605 8.216 20.7765 8.032C21.0005 7.84 21.2765 7.744 21.6045 7.744C21.9005 7.744 22.1405 7.816 22.3245 7.96C22.5085 8.104 22.6005 8.308 22.6005 8.572C22.6005 8.892 22.4965 9.148 22.2885 9.34C22.0805 9.524 21.8045 9.616 21.4605 9.616ZM21.3645 16.06C20.8445 16.06 20.4645 15.876 20.2245 15.508C19.9925 15.14 19.8765 14.652 19.8765 14.044C19.8765 13.684 19.9205 13.224 20.0085 12.664C20.1045 12.096 20.2245 11.568 20.3685 11.08C20.4405 10.824 20.5365 10.648 20.6565 10.552C20.7765 10.456 20.9685 10.408 21.2325 10.408C21.6405 10.408 21.8445 10.544 21.8445 10.816C21.8445 11.016 21.7685 11.48 21.6165 12.208C21.4245 13.088 21.3285 13.684 21.3285 13.996C21.3285 14.236 21.3605 14.42 21.4245 14.548C21.4885 14.676 21.5965 14.74 21.7485 14.74C21.8925 14.74 22.0725 14.64 22.2885 14.44C22.5045 14.24 22.7925 13.924 23.1525 13.492C23.2485 13.38 23.3565 13.324 23.4765 13.324C23.5805 13.324 23.6605 13.372 23.7165 13.468C23.7805 13.564 23.8125 13.696 23.8125 13.864C23.8125 14.184 23.7365 14.432 23.5845 14.608C22.7925 15.576 22.0525 16.06 21.3645 16.06ZM28.9856 13.348C29.0896 13.348 29.1696 13.4 29.2256 13.504C29.2896 13.6 29.3216 13.724 29.3216 13.876C29.3216 14.06 29.2936 14.204 29.2376 14.308C29.1816 14.412 29.0936 14.504 28.9736 14.584C28.2856 15.048 27.7816 15.392 27.4616 15.616L26.6936 16.132C26.3896 17.788 25.9896 19.088 25.4936 20.032C25.0056 20.984 24.3816 21.46 23.6216 21.46C23.2136 21.46 22.8816 21.332 22.6256 21.076C22.3696 20.828 22.2416 20.5 22.2416 20.092C22.2416 19.524 22.4656 18.912 22.9136 18.256C23.3616 17.608 24.2016 16.808 25.4336 15.856L25.5056 15.388C25.3696 15.604 25.1896 15.772 24.9656 15.892C24.7496 16.004 24.5336 16.06 24.3176 16.06C23.8216 16.06 23.4256 15.88 23.1296 15.52C22.8336 15.16 22.6856 14.688 22.6856 14.104C22.6856 13.464 22.8336 12.86 23.1296 12.292C23.4256 11.716 23.8176 11.256 24.3056 10.912C24.8016 10.56 25.3256 10.384 25.8776 10.384C26.0536 10.384 26.1696 10.42 26.2256 10.492C26.2896 10.556 26.3416 10.676 26.3816 10.852C26.5336 10.82 26.7096 10.804 26.9096 10.804C27.1096 10.804 27.2496 10.836 27.3296 10.9C27.4176 10.956 27.4616 11.072 27.4616 11.248C27.4616 11.344 27.4576 11.42 27.4496 11.476C27.4176 11.724 27.3176 12.352 27.1496 13.36C27.1176 13.552 27.0816 13.764 27.0416 13.996C27.0096 14.22 26.9736 14.46 26.9336 14.716C27.5496 14.236 28.1416 13.812 28.7096 13.444C28.8136 13.38 28.9056 13.348 28.9856 13.348ZM24.7496 14.848C24.9336 14.848 25.1096 14.736 25.2776 14.512C25.4456 14.288 25.5656 13.968 25.6376 13.552L26.0216 11.5C25.6936 11.508 25.3896 11.636 25.1096 11.884C24.8296 12.124 24.6056 12.444 24.4376 12.844C24.2696 13.244 24.1856 13.668 24.1856 14.116C24.1856 14.364 24.2336 14.548 24.3296 14.668C24.4336 14.788 24.5736 14.848 24.7496 14.848ZM23.7536 20.296C23.9536 20.296 24.1776 20.056 24.4256 19.576C24.6816 19.096 24.9256 18.332 25.1576 17.284C24.5416 17.812 24.0976 18.288 23.8256 18.712C23.5536 19.136 23.4176 19.508 23.4176 19.828C23.4176 19.964 23.4416 20.076 23.4896 20.164C23.5456 20.252 23.6336 20.296 23.7536 20.296ZM35.2438 13.324C35.3478 13.324 35.4278 13.372 35.4838 13.468C35.5478 13.564 35.5798 13.696 35.5798 13.864C35.5798 14.184 35.5038 14.432 35.3518 14.608C34.9838 15.032 34.6038 15.38 34.2118 15.652C33.8278 15.924 33.3878 16.06 32.8918 16.06C32.4838 16.06 32.1758 15.944 31.9678 15.712C31.7598 15.472 31.6558 15.128 31.6558 14.68C31.6558 14.456 31.7118 14.056 31.8238 13.48C31.9278 12.976 31.9798 12.628 31.9798 12.436C31.9798 12.308 31.9358 12.244 31.8478 12.244C31.7438 12.244 31.5958 12.38 31.4038 12.652C31.2118 12.916 31.0198 13.268 30.8278 13.708C30.6358 14.148 30.4798 14.612 30.3598 15.1C30.2078 15.74 29.8318 16.06 29.2318 16.06C28.9918 16.06 28.8318 15.976 28.7518 15.808C28.6798 15.632 28.6438 15.32 28.6438 14.872C28.6438 14.616 28.6478 14.412 28.6558 14.26L28.6678 13.3C28.6678 12.068 28.7918 10.784 29.0398 9.448C29.2958 8.112 29.6678 6.992 30.1558 6.088C30.6518 5.176 31.2438 4.72 31.9318 4.72C32.2998 4.72 32.5958 4.88 32.8198 5.2C33.0518 5.512 33.1678 5.92 33.1678 6.424C33.1678 7.232 32.9318 8.072 32.4598 8.944C31.9878 9.808 31.2198 10.82 30.1558 11.98C30.1318 12.396 30.1198 12.824 30.1198 13.264C30.3838 12.584 30.6758 12.032 30.9958 11.608C31.3238 11.176 31.6438 10.868 31.9558 10.684C32.2758 10.5 32.5678 10.408 32.8318 10.408C33.3518 10.408 33.6118 10.668 33.6118 11.188C33.6118 11.5 33.5238 12.064 33.3478 12.88C33.1958 13.576 33.1198 14.036 33.1198 14.26C33.1198 14.58 33.2358 14.74 33.4678 14.74C33.6278 14.74 33.8158 14.644 34.0318 14.452C34.2558 14.252 34.5518 13.932 34.9198 13.492C35.0158 13.38 35.1238 13.324 35.2438 13.324ZM31.6798 5.908C31.5358 5.908 31.3758 6.116 31.1998 6.532C31.0238 6.94 30.8518 7.496 30.6838 8.2C30.5238 8.896 30.3918 9.656 30.2878 10.48C30.7838 9.896 31.1918 9.26 31.5118 8.572C31.8398 7.884 32.0038 7.26 32.0038 6.7C32.0038 6.444 31.9758 6.248 31.9198 6.112C31.8638 5.976 31.7838 5.908 31.6798 5.908ZM39.9593 13.324C40.0633 13.324 40.1433 13.372 40.1992 13.468C40.2633 13.564 40.2953 13.696 40.2953 13.864C40.2953 14.184 40.2193 14.432 40.0673 14.608C39.7233 15.032 39.3473 15.38 38.9393 15.652C38.5313 15.924 38.0633 16.06 37.5353 16.06C35.9033 16.06 35.0873 14.912 35.0873 12.616C35.0873 12.264 35.0993 11.908 35.1233 11.548H34.6553C34.4153 11.548 34.2513 11.504 34.1633 11.416C34.0833 11.328 34.0433 11.188 34.0433 10.996C34.0433 10.548 34.2233 10.324 34.5833 10.324H35.2673C35.4033 9.444 35.6113 8.64 35.8913 7.912C36.1713 7.184 36.5073 6.604 36.8993 6.172C37.2993 5.74 37.7273 5.524 38.1833 5.524C38.5193 5.524 38.7833 5.672 38.9753 5.968C39.1673 6.264 39.2633 6.636 39.2633 7.084C39.2633 8.324 38.7433 9.404 37.7033 10.324H39.0473C39.1753 10.324 39.2673 10.352 39.3233 10.408C39.3793 10.464 39.4073 10.568 39.4073 10.72C39.4073 11.272 38.9553 11.548 38.0513 11.548H36.5873C36.5713 11.948 36.5633 12.26 36.5633 12.484C36.5633 13.316 36.6593 13.9 36.8513 14.236C37.0513 14.572 37.3633 14.74 37.7873 14.74C38.1313 14.74 38.4353 14.636 38.6993 14.428C38.9633 14.22 39.2753 13.908 39.6353 13.492C39.7313 13.38 39.8393 13.324 39.9593 13.324ZM37.8593 6.676C37.7393 6.676 37.6033 6.828 37.4513 7.132C37.3073 7.428 37.1673 7.844 37.0312 8.38C36.9033 8.908 36.7953 9.496 36.7073 10.144C37.1793 9.736 37.5313 9.28 37.7633 8.776C38.0033 8.264 38.1233 7.8 38.1233 7.384C38.1233 6.912 38.0353 6.676 37.8593 6.676ZM42.6662 16.096C41.6022 16.096 40.7502 15.896 40.1102 15.496C39.4702 15.088 39.1502 14.468 39.1502 13.636C39.1502 13.196 39.2262 12.86 39.3782 12.628C39.5302 12.396 39.7542 12.28 40.0502 12.28C40.2662 12.28 40.4422 12.336 40.5782 12.448C40.7142 12.56 40.7822 12.704 40.7822 12.88C40.7822 13.04 40.7702 13.18 40.7462 13.3C40.7462 13.332 40.7382 13.388 40.7222 13.468C40.7142 13.548 40.7102 13.632 40.7102 13.72C40.7102 14.08 40.8902 14.348 41.2502 14.524C41.6182 14.7 42.1302 14.788 42.7862 14.788C43.4662 14.788 43.9982 14.668 44.3822 14.428C44.7662 14.18 44.9582 13.836 44.9582 13.396C44.9582 13.124 44.8702 12.892 44.6942 12.7C44.5182 12.5 44.2982 12.336 44.0342 12.208C43.7702 12.072 43.3982 11.908 42.9182 11.716C42.3022 11.476 41.7982 11.248 41.4062 11.032C41.0222 10.816 40.6902 10.524 40.4102 10.156C40.1382 9.78 40.0022 9.316 40.0022 8.764C40.0022 8.188 40.1542 7.676 40.4582 7.228C40.7702 6.78 41.2142 6.432 41.7902 6.184C42.3742 5.936 43.0582 5.812 43.8422 5.812C44.4262 5.812 44.9622 5.9 45.4502 6.076C45.9382 6.244 46.3262 6.504 46.6142 6.856C46.9102 7.208 47.0582 7.64 47.0582 8.152C47.0582 8.656 46.9822 9.036 46.8302 9.292C46.6782 9.548 46.4542 9.676 46.1582 9.676C45.9502 9.676 45.7742 9.612 45.6302 9.484C45.4942 9.356 45.4262 9.204 45.4262 9.028C45.4262 8.876 45.4382 8.736 45.4622 8.608C45.4862 8.368 45.4982 8.216 45.4982 8.152C45.4982 7.816 45.3342 7.56 45.0062 7.384C44.6782 7.208 44.2702 7.12 43.7822 7.12C43.0942 7.12 42.5662 7.248 42.1982 7.504C41.8382 7.752 41.6582 8.104 41.6582 8.56C41.6582 8.864 41.7502 9.124 41.9342 9.34C42.1262 9.556 42.3622 9.736 42.6422 9.88C42.9222 10.024 43.3142 10.196 43.8182 10.396C44.4262 10.644 44.9142 10.868 45.2822 11.068C45.6502 11.268 45.9622 11.54 46.2182 11.884C46.4822 12.228 46.6142 12.652 46.6142 13.156C46.6142 14.1 46.2542 14.828 45.5342 15.34C44.8222 15.844 43.8662 16.096 42.6662 16.096ZM54.0465 13.324C54.1505 13.324 54.2305 13.372 54.2865 13.468C54.3505 13.564 54.3825 13.696 54.3825 13.864C54.3825 14.184 54.3065 14.432 54.1545 14.608C53.8105 15.032 53.4385 15.38 53.0385 15.652C52.6465 15.924 52.1985 16.06 51.6945 16.06C51.2705 16.06 50.9265 15.908 50.6625 15.604C50.2065 15.9 49.7305 16.052 49.2345 16.06C49.1305 17.604 48.8945 18.892 48.5265 19.924C48.1585 20.964 47.6185 21.484 46.9065 21.484C46.4745 21.484 46.1545 21.328 45.9465 21.016C45.7385 20.704 45.6345 20.272 45.6345 19.72C45.6345 18.936 45.8145 18.02 46.1745 16.972C46.5345 15.932 47.0905 14.784 47.8425 13.528C47.8425 12.36 47.8345 11.548 47.8185 11.092C47.8105 10.86 47.9025 10.676 48.0945 10.54C48.2865 10.404 48.5265 10.336 48.8145 10.336C48.9825 10.336 49.1025 10.372 49.1745 10.444C49.2545 10.508 49.2985 10.64 49.3065 10.84C49.3065 11.04 49.3105 11.188 49.3185 11.284C49.5745 10.964 49.8265 10.736 50.0745 10.6C50.3225 10.456 50.5865 10.384 50.8665 10.384C51.3145 10.384 51.6785 10.564 51.9585 10.924C52.2465 11.284 52.3905 11.756 52.3905 12.34C52.3905 12.764 52.3225 13.176 52.1865 13.576C52.0505 13.976 51.8625 14.34 51.6225 14.668C51.7905 14.716 51.9305 14.74 52.0425 14.74C52.3065 14.74 52.5585 14.644 52.7985 14.452C53.0385 14.26 53.3465 13.94 53.7225 13.492C53.8185 13.38 53.9265 13.324 54.0465 13.324ZM49.2945 14.908C49.5825 14.844 49.8465 14.688 50.0865 14.44C50.3345 14.184 50.5305 13.872 50.6745 13.504C50.8185 13.128 50.8905 12.736 50.8905 12.328C50.8905 12.088 50.8425 11.908 50.7465 11.788C50.6505 11.66 50.5225 11.596 50.3625 11.596C50.0745 11.596 49.7265 11.9 49.3185 12.508C49.3105 12.86 49.3065 13.376 49.3065 14.056C49.3065 14.424 49.3025 14.708 49.2945 14.908ZM47.0025 20.308C47.2185 20.308 47.3985 19.836 47.5425 18.892C47.6865 17.956 47.7785 16.788 47.8185 15.388C47.4745 16.188 47.2025 16.952 47.0025 17.68C46.8025 18.408 46.7025 19.02 46.7025 19.516C46.7025 19.772 46.7345 19.968 46.7985 20.104C46.8545 20.24 46.9225 20.308 47.0025 20.308ZM58.7678 13.324C58.8718 13.324 58.9518 13.372 59.0078 13.468C59.0718 13.564 59.1038 13.696 59.1038 13.864C59.1038 14.184 59.0278 14.432 58.8758 14.608C58.5798 14.968 58.1598 15.3 57.6158 15.604C57.0798 15.908 56.5038 16.06 55.8878 16.06C55.0478 16.06 54.3958 15.832 53.9318 15.376C53.4678 14.92 53.2358 14.296 53.2358 13.504C53.2358 12.952 53.3518 12.44 53.5838 11.968C53.8158 11.488 54.1358 11.108 54.5438 10.828C54.9598 10.548 55.4278 10.408 55.9478 10.408C56.4118 10.408 56.7838 10.548 57.0638 10.828C57.3438 11.1 57.4838 11.472 57.4838 11.944C57.4838 12.496 57.2838 12.972 56.8838 13.372C56.4918 13.764 55.8238 14.076 54.8798 14.308C55.0798 14.676 55.4598 14.86 56.0198 14.86C56.3798 14.86 56.7878 14.736 57.2438 14.488C57.7078 14.232 58.1078 13.9 58.4438 13.492C58.5398 13.38 58.6478 13.324 58.7678 13.324ZM55.7438 11.584C55.4478 11.584 55.1958 11.756 54.9878 12.1C54.7878 12.444 54.6878 12.86 54.6878 13.348V13.372C55.1598 13.26 55.5318 13.092 55.8038 12.868C56.0758 12.644 56.2118 12.384 56.2118 12.088C56.2118 11.936 56.1678 11.816 56.0798 11.728C55.9998 11.632 55.8878 11.584 55.7438 11.584ZM63.4788 13.324C63.5828 13.324 63.6628 13.372 63.7188 13.468C63.7828 13.564 63.8148 13.696 63.8148 13.864C63.8148 14.184 63.7388 14.432 63.5868 14.608C63.2908 14.968 62.8708 15.3 62.3268 15.604C61.7908 15.908 61.2148 16.06 60.5988 16.06C59.7588 16.06 59.1068 15.832 58.6428 15.376C58.1788 14.92 57.9468 14.296 57.9468 13.504C57.9468 12.952 58.0628 12.44 58.2948 11.968C58.5268 11.488 58.8468 11.108 59.2548 10.828C59.6708 10.548 60.1388 10.408 60.6588 10.408C61.1228 10.408 61.4948 10.548 61.7748 10.828C62.0548 11.1 62.1948 11.472 62.1948 11.944C62.1948 12.496 61.9948 12.972 61.5948 13.372C61.2028 13.764 60.5348 14.076 59.5908 14.308C59.7908 14.676 60.1708 14.86 60.7308 14.86C61.0908 14.86 61.4988 14.736 61.9548 14.488C62.4188 14.232 62.8188 13.9 63.1548 13.492C63.2508 13.38 63.3588 13.324 63.4788 13.324ZM60.4548 11.584C60.1588 11.584 59.9068 11.756 59.6988 12.1C59.4988 12.444 59.3988 12.86 59.3988 13.348V13.372C59.8708 13.26 60.2428 13.092 60.5148 12.868C60.7868 12.644 60.9228 12.384 60.9228 12.088C60.9228 11.936 60.8788 11.816 60.7908 11.728C60.7108 11.632 60.5988 11.584 60.4548 11.584ZM67.1471 13.324C67.2351 13.98 67.3631 14.628 67.5311 15.268C67.5631 15.372 67.5791 15.48 67.5791 15.592C67.5791 15.952 67.3591 16.132 66.9191 16.132C66.6711 16.132 66.4791 16.064 66.3431 15.928C66.2151 15.792 66.0951 15.536 65.9831 15.16L65.9711 15.112C65.6671 15.488 65.3911 15.74 65.1431 15.868C64.9031 15.996 64.6231 16.06 64.3031 16.06C63.8151 16.06 63.4111 15.88 63.0911 15.52C62.7791 15.152 62.6231 14.676 62.6231 14.092C62.6231 13.452 62.7591 12.86 63.0311 12.316C63.3031 11.772 63.6751 11.328 64.1471 10.984C64.6191 10.632 65.1471 10.42 65.7311 10.348C65.8831 8.836 66.1711 7.52 66.5951 6.4C67.0271 5.28 67.5991 4.72 68.3111 4.72C68.6551 4.72 68.9391 4.876 69.1631 5.188C69.3951 5.5 69.5111 5.972 69.5111 6.604C69.5111 7.484 69.2951 8.512 68.8631 9.688C68.4311 10.864 67.8591 12.076 67.1471 13.324ZM68.1791 5.896C67.9471 5.896 67.7271 6.488 67.5191 7.672C67.3191 8.856 67.1831 10.144 67.1111 11.536C67.9991 9.616 68.4431 8.056 68.4431 6.856C68.4431 6.552 68.4151 6.316 68.3591 6.148C68.3111 5.98 68.2511 5.896 68.1791 5.896ZM64.7231 14.848C64.8831 14.848 65.0351 14.788 65.1791 14.668C65.3311 14.548 65.5231 14.316 65.7551 13.972C65.6751 13.388 65.6351 12.784 65.6351 12.16C65.6351 11.912 65.6391 11.72 65.6471 11.584C65.2071 11.712 64.8431 12.004 64.5551 12.46C64.2671 12.916 64.1231 13.42 64.1231 13.972C64.1231 14.556 64.3231 14.848 64.7231 14.848Z" fill="white"/>
</svg>
